<?xml version="1.0" encoding="utf-8"?>
<!-- Generator: Adobe Illustrator 19.1.0, SVG Export Plug-In . SVG Version: 6.00 Build 0)  -->
<svg version="1.1" stroke="#000000" id="Layer_1" xmlns="http://www.w3.org/2000/svg" xmlns:xlink="http://www.w3.org/1999/xlink" x="0px" y="0px"
	 width="1000px" height="1000px" viewBox="0 0 1000 1000" style="enable-background:new 0 0 1000 1000;" xml:space="preserve">
<path d="M544,143c4.5,0.4,2.2,0,7.2,1.1c-1.6-3.4-0.2-4.5,1.1-8.5c1.8-6.1-1.6-4.5,5.2-6.3c-0.4,4.5-1.5,7.9-2.8,12.2
	c-3.6,12.6,1.9,18.7,3.1,22.1c1.3,4.5-0.8,2.5-0.8,10.3v0h-1.2c0-16-4.7-10.7-4.7-26.5c-11.2-2.7-19.1,0-33.1,0L544,143z
	 M657.7,479.8c-2.3,1.3-3.3,0.2-7.8,8.2h5v-4.5c6-0.5,6.7-1.8,9.9-6.3l-5.8,2.3C658.5,479.5,658.1,479.6,657.7,479.8z M952.7,366.1
	c1.3-5.2-0.5-10.3-0.5-13.5c0.4-6.7,2.5-6.3,2.7,2.3l14.4-4.1c4.5-2.9,8.7-7.4,12.7-10.3v8.5c-1,0-2.2,0.4-3.7,0.9
	c-6.3,2.3-5.5,5.6-9.3,7.4c-9.2,5-11.9-4.3-11.9,19.3c-14.9,10.3-5,10.8-9.7,19.8c-2,4-17.8,8.8-17.6,19.6c0,3.4,0.4,2,1.6,4.7
	c0,0,1.3,1.6,1.8,2.9l1.1,2.3c2.5,6.8,6.3,10.3,6.8,18.2c0.4,5.9,0,9.4-1.8,13.1c5.2,0.5,2.3,0.4,4.7,1.6l6.7,8.3
	c8.5-1.8,19.1-2.2,24.8,3.4l2.2,2.9c1.4,2,3.3,3.2,4.3,4.1v4.7c-3-0.5-6.7-0.2-9.9,1.3c0-4.7-0.5-5.8-1.6-9.7c-5.2-0.5-9-2.2-13-2.2
	c-11.7,0-13.1,4.3-20.3-5.8c-8.3-11.5-4-11.2-3.8-11.3c3.8-6.8,1.6-13.1-2.9-19.8l-7.9-11.9c-2.2,8.1-5,6.8-11.3,9.7
	c-2.7-11.5-1.3-12.2-7.4-12.8c-4.9-0.4-15.5,0.5-20.7-2.2c-0.2,0.2-0.2,0.7-0.2,0.7l-7.9,12.4c0-13.5,1.8-9.4,3.4-16.2
	c1.6-6.1-6.1-4-10.1-2.2c-8.1,2.9-0.5,0.5-2.3,2.3L847,430.5c0.4-6.1,2.3-6.7,4.7-11.7c-3.8-0.9-3.8-1.1-8.3-1.6
	c-3.6,7-3.1,5.6-2.9,15.7c0.2,5.8-1.4,7.7-2.2,14c7.4-5.4,0.4-5.4,13.1-8.3c0,11.3,2.7,14.2,10.1,18.2c-2.7,3.6-3.2,3.1-3.4,9.7
	c4.9,2.2,2.2,2.2,6.7,0l-3.2,14.8c-7.2,0-9,0.4-7.7-7.4c1.6-7.7,4.1-1.8-0.5-9c-4.3,2.9-3.2,3.8-5,6.7c-0.4-8.8-0.7-5.4-5-8.3
	c8.3-0.4,9.4-2.7,10.1-10.1c-5.6-2-2.9-3.2-5-8.3c-7.7,2-10.6,8.8-16.4,13.1c0-7,0-5.2,1.3-9.7c1.1-3.8,0.4-0.2,1.1-4
	c0.5-2.2,0,0,0.7-2.9c2.2-8.8,1.6-25.7-1.1-34.9c-1.4-5.8-0.7-8.8-4.7-13.5c-3.2-3.6-5.6-4-8.5-8.3c-2.3-3.6-1.6-4.7-3.4-7.9
	c-3.4-6.1-14-9.2-19.3-16.9c-2.3-3.8-5.2-10.1-9-12.4c-3.8-2.3-4.3-1.6-10.1-1.6c-1.4,7-3.4,11.5-9.7,8.3c1.1,4.5,1.3,4.3,0.5,9
	l-0.7,3.8c0.2,0,0.2,0.5,0.2,0.5c-11.9,5.9-8.1-1.1-14.8,1.6c0.5-7.9,1.3-2.5,0-9.7c-10.8,0-20.7-3.8-26.5-11.7
	c9,0.2,5.6,1.8,11.7,2.9l13,0.5l5.6-12.8c5.4-12.6-3.1-12.4,10.1-32.8l2.7-5.6c2.2,9,0.5,15.5,1.1,20.7c1.3,7.9,5.4,9.2,5.6,18.7
	c4.5-0.4,4.5-0.9,8.3-1.6c-4-8.3-3.4-14.6,2.7-22c0.4-0.5,1.4-1.3,1.6-1.8L801,290c-5.8-3.1-8.1-2.3-14.8-4.7
	c-6.2-2.2-4.7,0.3-11.3-4.4c-1.8,3.1-4,3.1-7.2,5.5c-12.1,9-14.8,2-27.7-1.3c0.2-0.4,0.5-0.9,0.7-1.1c1.1-2.3,2.2-2.9,0.5-5
	c-1.6-2.2-4-2.5-6.1-3.8c-4,2.7-2.7,2.2-6.1,5.6c-15.3,15.8-18.2,4-19.8,34.9c-1.1,19.6,5.8,13.9,17.6,18.5c3.6,1.4,7.4-0.5,9.7,5.2
	c-8.8-0.9-12.8-3.2-23-3.2c-3.4,14.8,6.5,12.2-3.2,21.4c-3.4,3.4-6.7,10.4-11.3,13.7c-0.7,0.5-0.2-3.4-3.4,4.5
	c-2.7,6.3-2.2,12.4-10.1,14.6l2.7,1.8c3.1,3.4,1.4,18,5.8,25.9c0.4,0.4,0.5,0.9,0.5,1.1l5.8,5.8c-3.1,6.8-0.4,3.6-0.2,10.3
	c0,4.1,0.2,1.4-0.5,5.2c-4,16.4-12.8,11.9-14.6,19.8c-1.6,5.9,0.5,5.2,1.1,8.6c2.3,14-3.8,10.8-4,23.6c11.7,3.2,13,9.4,20.2,19.6
	l0.7,0.7c0,0.4,0.5,0.9,0.5,1.1l6.7,11.7l-13.1-10.3c-0.5-1.4-1.8-3.4-2.9-4.7c-3.4-5.2-15.5-15.8-20.2-16.4
	c-10.3,0.9-9.9,10.6-23,15.1c-8.5,2.5-17.3,6.3-26.5,6.3c0,10.4,3.8,14.6,11.7,16.7c-2.2,7.9-2.9,1.8-5,9.7c4.5-1.3,2.9-1.6,6.1-4
	l3.8-2.7c-2,7.2-5.9,5.4-3.2,11.7c-8.5-0.9-5-3.4-9.5,3.4l-6.8,9.7c-2.3,5.4,2.5,17.6,3.2,26.1c-2.2-2.3-1.6-1.8-3.2-5l-6.3-18.5
	c-3.6-10.6,9.5-18.5,7.2-29.3c-0.4-0.7-1.6-4-2.2-4.7l-6.3-14.2c4.1-10.1,1.1-9.5-7.2-15.3c-5.9-4-3.8-5.6-6.7-11.7
	c-4.3,1.1-4.9,1.8-8.6,2.9c-4,1.1-6.3,1.4-9.5,2.2c-1.8-3.6-1.3-5.4-4-9.2c-3.1-4,0,0-3.2-3.4l-2.3-2.3c-16.7-18.2-9.7-7-21.4-13.1
	c-6.1-3.1-7.2-7-14-6.8c-3.8,0.4-6.8,0.5-11.2,0.5l-7.4,14c-3.4,2.5-6.5,2.3-10.8,2.3c6.1-7.9,3.8-1.8,8.3-13.1c4-9.5,4-1.1,4-12.4
	c0-7.9-2.7-14-6.7-20.9c-4.5-7.6-2.2-11.9-11.3-18.2c-4.9-3.4-2.9-2.9-5-7.2c-0.4-0.7-0.5-1.3-0.5-1.4c-0.2-0.2-0.5-0.4-1.3-1.1
	c-11.3-11.5-9-9.7-26.6-9.7c-1.1-4.3-4.3-6.5-0.5-7.2c22.1-3.1,18.9-0.2,30.1,7.2l16.2-11.9c4.7-4,0.7-1.1,5.2-2.2
	c9.5-2.7,3.6-3.8,7.4-8.5l14-13l0.5-0.5l5-2.9c13.3-7.7,9.7-0.5,21.6-3.2c10.3-2.3,2,0.4,6.3-3.4c5-4.3,5-5.4,14.2-5.6l-1.6-5
	c8.3-3.4-1.8,2.2,7.2-1.1c4.5-1.3,4.3-1.8,6.7-4.7c6.7-8.1-1.6-11,11.2-31.7l2.7-6.1c4.3-12.6,12.2-24.8,11.2-38.5
	c-2-22,9-19.8-20.7-19.8c-2.7-5.6-1.1-7-7.2-10.8c-4.3-2.9-7.6-2.7-12.2-4.5c-14.2-5.2-4-7-22-5.2c-7,0.9,0.9-1.4-6.8,0.7
	c-13.1,3.4-6.8,0.5-19.3,1.6c-6.1,0.5-5.8,4-24.8,8.5c-4.5,9.4-5,18.4-5,29.7c-4.7-3.8-3.2-3.8-4-9c-0.9-5.6,0.2,0.7-1.1-4.3
	c-2.9-11.9,7.9-7.4-0.7-22.1c-5-8.6-2.7-9.9-12.2-14.2c-4.1-1.8-9.9-3.6-8.6-8.6l0.7-3.1c-7.2,1.6-4.6-1.2-10.4-7.3
	c-3.8-4-6.7-6.3-9.5-10.3c6.8,1.6,12.4,7.4,18,11.3l6.8,8.3c5.4,7.9,18,4.5,19.6,23.2c4.9,0,12.8-1.4,17.1-2.7
	c9.5-3.1,3.2-4.7,12.4-5.8c8.3-0.7,9.2,0.9,16.9-1.3c7.2-2,7-1.8,16.2-1.8c0-6.5-2.9-32.2-5-36.2c4.3,1.6,1.4-0.5,3.8,3.2
	c1.1,1.8,0.7,2.7,1.3,5c4.7,26.6-0.5,25,25.9,35.1c12.4,4.7,5.8,5,11.9,11.3c2.9,2.9,16.7,4,23,0.7c2.2-1.1,0.9-1.1,3.8-2.7
	c6.8-3.2,28.8,1.8,29.3-26.5c1.6,1.6,1.1-0.2,2.3,3.8c1.8,4.7-0.4,9.2-1.6,13.1c-2.3,6.1-0.5,4-5.6,7.9
	c-19.4,15.1-29.9-8.5-25.6,33.8c0.7,8.3,1.1,1.8-1.6,9.5c-0.7,2.1-1.7,4.2-2.5,6.3c-3.5,9-7.1,18-10.6,27c-1.4,3.5-2.7,7-4.1,10.4
	c-0.3,0.7-0.5,1.5-0.9,2.2c-1.3,2.6-1.3,5.3-1.6,8.3c-0.2,2-0.4,3.9-0.6,5.9c3.8,1.6,4.9,2.2,8.3,2.3c14,1.1,9,1.1,16.4,12.4
	c7.9-0.7,5.6-3.1,10.6-1.8l14,6.3c14.2-0.2,6.8-4.5,18,2.7c8.3,5.2,7,2.7,11.7,11.3c4.5,8.1,14,4.7,6.8-2.2c11-0.7,2-4,13.1-4.7
	c0-20.9-5-20.5-5-34.6c0-4.5-0.4-8.8,0.7-12.8c2-7.4,4.9-13.7,10.6-17.1l9.2-5.6c3.6-2.5,4.1-3.6,7.4-5.8l-8.6-19.1
	c-2.2-6.8-2-10.3-8.3-13.5l-5.8-2.3c-6.7-3.6-10.6-9.9-11.2-17.6c-0.5-8.8-4.9-11.5-5.6-21.6l9,22.5c2.9,10.4,5.9,12.3,15.1,16.2
	c9.5,4,5,1.1,7.9,8.5l3.8,8c4.9,12.4,14.4,15.4,15.1,21c0.5,6.5,27,13,31.5-3h5c1.6,5,5,6.4,9.5,7l13.1,2.6c12.1,4.5,24.8,5,36.7,4
	c1.6-0.1,1.8-0.1,1.7,0c0.2,0,0.6-0.2,1.4-0.3c0.4,0,0.9-0.2,1.1-0.2l4-2.2c20.9-10.8,28.8-6.8,29.9-18c6.8,0,6.7,0.5,11.3-1.8
	c-0.5-6.7-0.7-6.7-6.3-8.3c0-5.2,0.5-12.1,0.5-14.8c1.3-16.9-1.1-23.9,12.4-31.1c0-10.3-2.9-9.2-2.7-14.8c0.2-8.1,3.4-0.2,1.3-13.1
	c-2.5-14.6-1.8-11.2-1.8-26.5c9,4.7,5,0.7,5,11.3c0,7.6,2.2,10.6,3.4,16.7c1.8,9.9-4,9-1.6,16.2c7.6,20.5,0.5,0.5-7.2,23.2l-0.7,2.3
	c-5.9,15.8-3.2,21.4,2.3,32.8c1.1,2.3,1.3,3.8,1.8,6.1l15.1-6.7c0,3.8,0,2.9,0.5,6.1c1.3,5.6,0-0.5,1.1,3.2l1.6,7.4
	c-5.8-1.4-3.2-2.5-5-5.2c-2.9-4.1-2-2-6.7-4.7c-18.5,12.8-15.7,4.3-22,12.8c-3.6,4.3,1.8,0.5-3.8,4.5c-2.3,1.6-4,1.6-5.8,2.3
	c-9.9,2.9-14.6,7-24.1,10.3c-0.5,0.2-0.9,0.4-0.9,0.4s-0.4,0-1.8,0.2l-28.6-1.1c-3.4-0.7-2.2-1.1-7.2-1.3c-2.5,6.1,0.5,3.4-1.8,11.3
	l-3.8,9.2c-3.4,10.1-13.3,5-8.6,26.5c0.5,2,0.4,1.4,1.1,2.7l2.7,3.8l0.7,0.7l3.4,5c4.3,7.9,8.8,15.8,18,18.2l1.6-11.3
	c2,23.8,6.1,18.2,15.7,30.1l2.7,4.7c0,0.4,0.2,0.9,0.2,1.1c4.9,13.5,1.8,12.1,14.6,14.8l6.7,1.8c6.8-13.3,12.4-15.1,19.6-8.3
	c10.3,9.5,17.6,7.7,29.9,6.7c0,7.2,1.1,5,1.6,11.7c12.4-0.2,4.7-5.6,13.1-1.8l-1.8-3.2c0-0.2-0.2-0.7-0.2-0.7l0.7-5.6
	c1.6-4.7,0.7-4.1,5-7.9c13.1-12.2,9.2-3.1,16.4-20.2l2.7-6.3C950,370.8,951.6,371.9,952.7,366.1z M683.6,358.6l-6.8-4.7
	c-2.5-2.7-1.3-4-5.8-4c-20.9,0-11.9,4.5-23.8-2.7c-7.2-4.1-8.6-2.3-15.8-0.7c-6.1-9-18.9-16.9-28.6-7.4c-1.8,2-1.4,1.6-1.6,2.2
	c-1.3,1.8,3.4-1.4-2.3,2.9c-7.2,5.4-3.8-1.8-13.5,5.6c-5.9,4.7-4.7,9.4-13.7,9.2c-7,0,0.9-1.4-11.3-3.2c-3.6-0.5-0.4,1.1-4.7-1.1
	c1.6,4.5,7.6,3.4-9.2,10.6c-8.5,3.6-4,0.2-11.7,11.3c-8.3,12.2-5.6,3.9-14,10.6c-16.9,13.7-5.4,3.6-16.2,8.6
	c0.4,17.5,2.2-4.7,3.2,10c11.2,0.7,8.3-0.8,8.5,6.2h4.7c0,2-0.5,8.7-0.5,8.7c1.1,10.1,4-5.3,6.1,16.3l2.3,7.2c4.1,4,5-0.5,11.9,2.7
	c0.2,0,2.7-0.8,2.7-0.8s-0.2,2.7,0.3,3.2l2.8,1.9c0.4,0,0.9,0.4,1.1,0.5c0.4,0,0.9,0.4,1.1,0.5c12.2,7.4,5.9,2.3,16.7,6.3
	c5,2,6.3,1.6,6.8,8.3c20.5-0.5,9.7-1.1,9.2,4c-0.7,9.7,4.5,3.1,5.6,14.2c10.8-2.9,0-1.4,5.8-6.1c4.3-3.8,4.9-0.7,12.2-0.5
	c-1.3,3.4-0.5,4.9,2.2,9.2c4.9,7.7,10.1,6.1,12.8,12.2c3.2,6.8-1.1-0.2,0,5l5,4.7c3.2-2.2,1.6-2.7,5-4c1.1-0.4,7.9,0,11.7-2.2
	c6.5-3.2-1.8-0.4,3.8-3.8c6.5-3.6,3.8,5.9,16.2-4.7c6.1-5.6,3.2-6.8,14.6-6.8c0.9-7.4,2.7-4.5,4.3-14c2-10.6-2.3-7.7-2.3-14
	c0-7.4,5-5.9,9.7-9.7c3.8-3.1,5.4-7.4,8.3-11.7L684,414.9c-1.3-4.3,1.1-6.1-1.1-14c-0.9-2.3-2.2-5.6-2.2-5.8l1.3-8.5
	c0-0.2,0.2-0.5,0.2-0.7c0.4-0.2,0.4-0.5,0.5-0.7c0-0.2,0.4-0.5,0.5-0.7c0.7-0.9,2.3-2.5,4-5.2C693.3,370.1,686.5,360.9,683.6,358.6z
	 M566,137.4c-5,1.3-4-0.4-5.1,4.6h5.1V137.4z M900.3,249.7c-0.7-3.8-1.6-4.7-1.6-9.7H892c0.4,14,4.3-1.1,1.6,11.5L900.3,249.7z
	 M903.2,211.7c-2.3,2.9-0.5,1.3-1.8,3.2c-0.2,0.2-0.5,0.7-0.7,1.1l-1.6,1.6c-2.7,3.2-1.8,2.3-4,6.1c2.5-0.7,1.4-0.2,2.9-0.9
	c0.2,0,0.7-0.2,0.7-0.2c3.4-2.2,4.5-8.5,14.8-9.2l-3.2-5l5.2-4.5C910.7,204.7,906.2,207.7,903.2,211.7z M890.6,195.3
	c-1.1-3.4-0.2-4.3-3.2-4.5l-3.2,1.1c-6.8,3.2-8.6,4.3-10.3,10.1c5.2-1.3,4.3-1.6,7.9-3.8C885,196.6,886.8,196,890.6,195.3z
	 M947,289.1c-7,0-4-1.6-11.9-1.6c-3.8,0-3.9-0.4-6.8,1.6c-18.7-4.3-10.3,2.2-24.1-9c-2.2-2-0.1-1.3-3.8-2.5
	c1.6,6.7,3.2,6.3,7.9,10.3c10.8,9.5,15.9,6.3,25.4,2.9c7.2-2.9,4.4,0,13.4,0V289.1z M860.9,195.3c-8.6,0.5-10.1,4.3-11.7,11.3
	c5.6-1.3,3.2-1.8,6.3-5C859.1,198.6,859.3,200.5,860.9,195.3z M83,259.6v-6.8l-6.7,1.8l3.8,2.9C81.4,258.5,82,258.9,83,259.6z
	 M84,312.1v-5c-6,1.1-7.4,1.1-8.3,8.5C80.9,311.8,77,312.7,84,312.1z M132.6,198.2c0.4,0.4,0.5,0.9,0.9,1.1c0,0,0.2,0.5,0.5,0.7
	c1.3-4.3,0-1.3,1.8-4.7c-5-1.3-6.3-2.7-10.1-5c-0.2,5.2,0.5,4.7-4.7,9.7c6.3-0.5,4.7,1.1,6.3-4.7L132.6,198.2z M121.1,347.2
	c-4.3,2.9-3.4,0.7-4.7,6.7c-3.4-0.7-2.7-0.2-5-1.6l-3.4,4.7C122.7,353.5,121.1,355,121.1,347.2z M677.9,435.9
	c5.6-1.6,5.8-1.6,6.3-8.3c-4.9,1.6-0.9,0-3.1,2.5C677.3,434.7,679.3,430.2,677.9,435.9z M677,507.5l-0.7,0.7
	c-2.2,1.6-2.7,1.8-4.3,4.3c-0.7,1.6-1.3,3.8-2.3,5.6c-1.1,2.3-1.6,2.9-3.2,4.9h6.7c0.2-15,9-11,6.5-16h-1.8
	C677.7,507,677.1,507.5,677,507.5z M494.5,115.4c3.8-4.7,0.2-3.4,7.4-4c0.2-5.2-0.2-3.2,1.6-6.7c-3.2,1.1-1.3,0.2-3.2,1.8
	c-0.7,0.5-1.8,1.8-3.4,2.9c-9.7,7.7-9.5,4.7-14.8,3.4c-2.3,10.1,2.7,11.3,6.3,24.8c3.4,12.8-3.8,2.2,10.1,23
	c-1.6,3.4-2.9,6.3-3.2,11.3c9.2-6.3,2-14.8,22.9-14.8c-5.8-8.3-17.5,2.9-18.2,3.4c-2.2-9.5-1.6-6.7-5-13.1c-4-7.2-5-25.4-4.7-26.5
	C491.8,119,492.3,117.9,494.5,115.4z M387.7,172.1c-7.4,1.8-3.4,2.7-9.9,5l3.2,5C384.5,179.5,386.7,177,387.7,172.1z M183.3,211.7
	c-4.3,2.9-4.3,1.6-4.7,8.3c4.3-2.2,1.6-1.6,8.3-1.6C184.2,216,183.7,215.5,183.3,211.7z M969.6,366.7c2.7-0.5,4,0.5,5.8-3.8
	c0.4,0,0.4-0.5,0.4-0.7l2.2-5.6C970.7,360.5,973.4,359.5,969.6,366.7z M595.4,757c-5.5,10.4-9.1,10-11.4,15h5.1
	c0.4-1,0.9-1.9,1.6-3.1c1.8-3.2,1.8-2.7,4-6.1c3.2-4.5,4.5-7.9,7.4-12.4C595.4,752.1,598.3,751.1,595.4,757z M597.7,726.4
	c-15.8,0-9,0.7-19.6,6.7c-2-5.8-3.1-3.1-9.5-8.8c-4.5-4-6.8-5-10.8-9l-10.1-9.7c-0.2-0.2-0.5-0.7-0.7-1.1l-8.5-7.9
	c1.3,5,2.7,5.6,7.9,11.9c7.4,9.2,18.5,18.7,27.2,27l4.5,4.3c8.6-4.7,7.2-6.7,21.4-6.7C598.9,727.9,599.5,729.9,597.7,726.4z
	 M554.2,649.7c8.8-10.4,7.4-9.3,6.2-10.2l0.9-4c-4.3-8.2,3.8-9.2-0.1-15.3c-0.7-3.2-3.8-2.6-5.3-4.9l26.4-8.3
	c-6.7-13.7-8.3-14.1-8.3-23.1h-1v0.2c0,10.6,0.5,10.3,4.5,16.4c-14,7.4-25.3,4.3-25.5,15.3c-0.2,6.1,1.2,2.8,5.4,4.5
	c-1.3,3-3.2,15.6-3.2,19.6h3c-12.1,9-12.1-4.3-22.6,5.1L516.4,660c-0.7-8.3-1.6-2.9,0-10.1c-3.4,2.3-5,7.2-5.6,11.9l2.9,28.8
	c1.3,6.8,3.8,1.1-0.5,13.7c-1.8,5.8-3.8,37.1-6.3,48.1c-1.6,5.8-3.8,10.8-0.5,16.2c4.5-18.9,7.4-62.9,16.4-74.2
	c-0.4-0.5-1.1-2.8-2.2-4.5c-3.4-5.2,1.1-0.2-1.3-11.7c-4.7-22.1,5.6-19.6,9.7-20.9c2.9-0.7,5.2-2.3,8.3-4.7
	C547.4,643.6,543.1,647,554.2,649.7z M530,473.7l6.3-1.8c-3.2-4.3-1.3-2.2-6.3-4.9V473.7z M775,684.7c10.1,0,12.2-1.6,21.4-1.6
	c-0.7-3.2-0.2-2.7-1.6-5c-5.8,0.5-5.2,1.4-10.6,2.7C775.8,682.9,779.2,678.9,775,684.7z M833.7,762.4c0-3.2-1.3-3.4-2.2-8.5
	c-0.5-4.5,0.2-1.1-0.2-4.7c-0.2-3.2-1.3-3.2,0.5-5.8c1.8-2.3,0,0.7,2.7-2.7c-12.8,2.9-10.3,4.5-19.1,10.6l-8.5,6.3
	c-5.2,4-1.8,2.9-10.6,2.9c-3.2-14-0.2-7.7-5.6-9.5c-7.2-2.3-5.8-5-15.8-5.2c5.8-5.6,1.3-1.8-0.5-9.2c-1.8-7.2,1.1-1.6,1.6-8.6
	c0.2-5-2.3-5.2-0.2-11.2c3.2-9,1.6,0.7,7.7-7.2c-10.6,0-12.2,6.7-22.1-1.1c-6.3-5-3.4-14.8-9.7-21.6c-5.2-6.1-15.7-10.1-23.8-11.2
	c-6.1-0.5-19.3,2.2-21.6,5.8c10.3,0,10.1-4.5,18.7-2.7l3.4,1.3c8.5,2.9,7.4,3.4,14.2,7.4l5.2,3.2c0.5,0.7,4.5,7.7,4.7,9
	c4.5,19.8,2.7,13.1,19.3,21.2c0,12.4-2.3,8.5-2.9,14.8c-0.2,6.7,1.1-0.2,0.5,7.9l-1.8,24.1c-0.1,1.7,0,3.2,0.2,4.2h5.2
	c4.5-1,4.7-1.3,8.3-3.2c0.2,1.5,0.3,2.2,0.5,3.2h2.6c-0.4-1-0.5-2.6,0-3.8c1.8-4.5,1.3-1.1,4.5-2.4l4.3-2.2c2.9,5.6,0,3.2,5,6.7
	c0.2-10.6,3.2-3.4,12.8-10.3l10.8-8.6c1.1-1.1,2.2-1.6,2.7-2.3c1.6,6.8,2.7,15.7,6.7,21.4C832.8,763.1,833.9,768,833.7,762.4z
	 M973.4,640.4c-3.8,1.8-5.1,1.6-9,2.5c-6.1,1.3-4.5-1.9-6.3,5.1h13.1c4.3-6,7.8-8,11.8-10.1v-3.8c-1,0.7-1.8,1.1-2.7,1.6
	C978,637.3,975.6,639.5,973.4,640.4z M971.3,612.3c0.5,6.8-2.1,1.8,8,10.3c1.4,1.1,2.7,1.8,3.7,2.5v-4.5l-10.8-7.6
	C971.9,613,971.5,612.5,971.3,612.3z M877.3,289.1c5-1.3,7.9-3.2,11.9-6.3c4.7-3.8,6.8-5,9.5-10.1c-5,1.4-14,5-17.6,10.1
	C878.9,285.7,878.9,286.2,877.3,289.1z M962.9,653.5c-2.3,1.1-2.7,1.6-6.7,1.6c0.4,4.5,0.9,4.5,1.6,8.1
	C963.1,657.1,962.4,659.3,962.9,653.5z M738.5,581.4c9.5-2.2,11.7,3.4,25.4,5c5,0.5,4.3,1.6,6.8-2.2c-4-1.1-5-1.6-10.1-1.6
	c3.8-5.2,6.3-13,11.7-16.4c3.8-2.3,4,0.7,6.8-6.7c2.7-7.4-2.9-14.6,7.2-17.5l20.3,2.7c4,1.8,4.7,4.3,6.8,7.9
	c8.3-2.2,1.8-3.2,14.8-3.2c0.7-9.2,8.6-12.4,14.8-16.4c6.7,5.8,5.6,6.7,13.1,1.6c6.1,9,9.5,10.3,9.2,23.6
	c-0.2,16.2,2.2,5.1-4.3,14.1c2.3,4,4.3,5.6,4.7,11.6h3.4c0-20,8.5-39.3-5.8-51.9c-3.4-3.2-3.8-5.5-4.3-12.2
	c8.5-5.6,7.9-3.7,8.6-16.9c0.5-9.7,1.3-1.1,4.5-16.2c-4.3-1.1-4.7-1.6-8.3-3.4c2.7,11.2-1.8,5-3.4,18.2c-0.5,4.3-0.5,7.2-3.4,9.7
	c-2.7,1.8-2.9,1.1-5.8-0.2l-6.7,7.4c-4.5,8.6,0.5,3.4-6.3,6.8c-6.7,3.2-2.7-0.5-8.3,5l-5.8,9c-10.1-2.2-4.3-0.5-13.1,1.8
	c-2.3-3.8-2.7-4.7-6.3-5.8l-4.3-0.5c-8.5-1.8-18.2-4-23.8,4.5c-3.2,4.3-1.6,12.2-6.7,16.9c-4.3,4.3-2.2-1.8-5.8,7.2
	c-1.8,5.2-1.8,6.3-4.3,10.6c-3.8-1.6-7.7-2.2-12.4-4c-9.2-3.4-21.6-0.2-30.6,0.5c-9,0.7-7.7-1.3-14.6-3.2l-15.1,9.7
	c-3.4,1.6-1.3,0.5-3.2,1.8c-7.4,5.8-3.1,6.7-12.1,2.3l-7.1-0.5v-6.7c4-1.1,1.7,0.7,3.1-3.2c-2.9-2.2-1.9-1.3-4.4-4
	c-5.6-5.2-5.1-14.8-13.7-15.8c3.4,5.2,9.7,23,9.7,31.5c-5.6,1.8-2.7,3.2-9,5.8l-14.6,6.7c-0.5,0.2-1.6,0.7-1.8,1.1
	c-0.2,0-2.3,0.7-2.7,0.7c-2.2,1.1,0.5-0.5-3.4,2.2c-22.5,15.7-7.2,20.7-46.1,11.3c3.4,7.4-1.1,5.6,6.3,8.6c0.7,0.2,10.8,2.9,13,3.4
	c8.3,1.3,22.1-11.7,29.9-17.5c11.3-8.5,17.5-14.2,34.9-14.2c5.2,11.2-0.7,21.4,5.6,32.6c1.8,3.2,2.3,2.2,2.2,5
	c-0.5,4-1.1,2.2-3.2,4.5c-3.2,3.8-0.7-1.8-4.3,6.1c-2.7,6.7,0,8.5-4.7,13c-5.2,5.2-1.8-0.5-14.8,10.3c-6.1,5-9.5,7.7-13.7,14.2
	c-3.2,5.2-6.3,6.3-11.3,9.7c0,8.6,1.1,10.1,1.6,16.7c-7.9,1.6-2.3,0.5-6.3,0l-6.8-1.8c-0.7,9-5.6,9.7-13.1,11.7
	c4,7.9-0.7,5.8,1.6,11.7l3.2-5.2l0.7-0.7c11.2-8.5,19.3-12.2,18.7,5c0,5.2-0.5-0.2,1.1,6.8c5.6,27.7,9.2,11.2,9.7,23
	c0.2,11.2-3.2,6.3,2.7,10.6c-1.1-6.1,0-5.8,0-14.8c10.1,2.3,9.2,10.6,20.2,13.1c12.2,2.9-3-4.3,9.9-0.2c4,1.1,4.9,2.3,4.9,5
	c0,0.9,4.7,3.7,6.3,4.7h7.6c-0.3-1-1.1-3.8-3.8-8.5c-5.8-9.5-11.3-1.6-11.7-14.8c-5.2,4-1.3,2.9-6.7,6.7c-5.2-1.3-1.1,0.2-4.7-1.8
	c-0.2-0.2-0.5-0.5-1.1-0.5l-1.8-1.6l-0.7-0.7c-6.7-6.1-20.2-11.9-20.3-21.4c0-2.3,1.1-6.7,0.2-11.2c-2.7-14-10.6-13.5,1.1-31.5
	c4-5.6,9.7-15.3,15.1-19.6c2.9-2.7-0.5-0.7,4.7-3.4c8.3-4,1.1,1.8,8.3-3.2c10.8-7.7,15.7-5.8,16.9-10.8c1.3-4.3-2.3-2.2,1.3-10.3
	c1.3-2.7,4.5-7.2,6.1-9.2c-10.8-12.2-5.6-15.7-6.1-27.5c-0.5-10.1-2.2-6.8-4-13.7c10.6,0,22.1,0.2,24.8-11.3
	C718.2,581.5,715.1,586.2,738.5,581.4z M869.3,750.5c2,1.3,1.7,1.1,4.7,1.8v-5C869,748.4,871.7,746.6,869.3,750.5z M922.8,461
	c5-7.4,3.2-0.2,5.6-7.2c-4,0.2-5.8,0.2-8.3,1.8c-0.7,0.5-5,5.6-5,6.3c0,4.7,2.5,6.7,5,8.6c2.9-6.1,2.9-3.4-1.6-5
	C920.3,459.2,919.7,465.5,922.8,461z M983,549.5v-2.7c-3-0.2-7.2-0.9-13.1-2.2C972.9,549,978,549.9,983,549.5z M116,384.5
	c3.5-0.3,4.5,0,4.7,0.1c-0.2-0.1-1.4-1,0.3-4.8C116.5,382,117.8,377.6,116,384.5z M523.3,649.1c-3.1-4-6.3-7.9-11-11
	c-2-1.1-0.9-5.3-0.9-5.3s-2.1,5.6-13.1,4.5c0-4,0.2-5.2-0.7-9c-3.2-10.8-4-5-17.5-14L470,625.7c12.4,0,1.3-1.6,15.1-4.7l10.3,16.2
	c2.9,7.7-6.3,10.8,8.3,9.5C512.8,646,514.3,646.9,523.3,649.1z M58.4,702.7c0.7-4.5,1.3-5,3.2-8.5c-1.6,0-5,0-6.3,0.2
	c-5.2,1.8-2.3,2.3-2.7,3.8c-0.7,2.9-0.5,2.2-2.2,4.7c-3.1,5.4-1.4-2.5-2.2,6.7c7.4-2.2,2.7-2.3,7.4-4.3c1.8-0.7,5.6,0,7.4,0.7
	C61.5,701.6,63.1,703.6,58.4,702.7z M64.3,638.2c2.9-2.3,5.6-6.3,8.5-8.3c4-2.7,15.3-5,18.2-16.2c-4,2.7-8.3,8.5-14,10.6
	c-7.7,3.4,0.2-2.9-8.3,5l-5.2,6.1c-4.7,5.8-6.3,1.1-8.6,9.5C57.3,643.4,61.8,640.2,64.3,638.2z M139.8,642.2
	c-9.7,5.8-6.1,4.5-20.7,4.5c-1.3,5.8-2.9,4.1-8.1,14.9c-5,10.3-6.7,5.6-11.7,13.1c5.2-1.6,1.6-0.5,3.8-1.3c0.2-0.2,0.7-0.5,1.1-0.5
	l6.8-4.7c0.2-0.2,2.7-3.2,2.9-3.8c2.2-3.4,6.7-14.6,10.3-14.6c5.6,0,2,2.7,8.6,0.5c6.8-2.3,9.3-10.6,26.3-7.2V640
	c-6,0-5.9,1.1-9.9,1.1C144.4,640.9,146.6,637.9,139.8,642.2z M34.8,747.8l-4.8-3.6v17.6c1,0.2,2.3,0.4,3.8,0.4l1,2.9
	c2.7,2.9,2.3,0.2,2.8,0.2c2.3,0.5,1.6,1.8,2.1,4.7l0.4,2h10.1c0.4-3,1.8-4.6-1.3-13.5C44.4,746.6,45.1,753.4,34.8,747.8z
	 M30.8,733.1c0,0,1.2-2.7,6.2-4v-3.2c-6,1.3-2,1.3-8,0.2v1.8c1,1.8,0.9,1.3,1.1,6.3C30.3,734,30.9,733.4,30.8,733.1z M407.5,767.1
	c6.1-1.6,4.5-0.2,5-6.7C406.5,762.2,408.1,760.6,407.5,767.1z M465.1,651.7c-4,2.9-4.3,3.4-4.7,10.1c2.7-1.8,5.8-3.4,5.8-7.2
	C466.4,651.2,465.7,652.6,465.1,651.7z M447.1,759.2c4.3,1.6,2.2,3.1,7.4-2.5c0.2-0.2,0.7-0.5,1.1-0.7c1.6-2.2,1.3-1.1,2.9-3.4
	C451.3,753,450.2,754.3,447.1,759.2z M48,576v3.2c3-0.2,2.8,0,5.3-0.5c3.6-0.7,1.8-0.2,3-1.1C52.5,572.4,56,574.2,48,576z
	 M33.1,651.7c2.7-3.6,0.5-2.2,5.1-3.2c-3.2-2.9-5.2-4.9-9.2-4.5v4.5C31,649.2,30.4,649.9,33.1,651.7z M292.9,698.2
	c0.5,0,0.7-0.2,1.1-0.5c-7.4,0-10.6,1.1-16.2,3.8l-14.2,10.3c-7.7,4.7-14.8,3.8-15.7,14c-2.7-2.9-3.2-3.2-6.7-5
	c0.7,8.5,1.1,2.3,3.2,8.3c-5.6-2.2-1.1-1.6-5,1.6l-4.5,3.8c-2.3,1.6-5.8,5.8-6.8,9.5c-8.6-2.2-6.7-5.2-1.8-9.7
	c-6.3-0.5-5.6-1.8-10.8-5.6c-8.3-5.8-12.8,0.5-19.8-8.3c-12.4-15.3-10.1-6.8-15.8-30.1c-1.8-6.8-2.2-13.1-0.5-16.4
	c1.8-3.4,2.7-1.8,2.7-7.4c-7.4,8.6-11.3,5.2-7.7,22.7c0.5,3.4,1.6,4.3,2.7,7.4c5.6,18.5-7.7,1.8,13,26.1c4.5,5.2,3.4,4.3,10.3,6.7
	c2.2,0.7,3.2,1.1,5.2,1.8l7.2,3.4c0.2,0.5,1.3,1.6,1.6,1.8c3.8,4.5,3.4,8.5,3.8,13.1l0.7,5.1c1.5,5.7,4,11.5,3.8,17.5h8.6
	c0-3-0.4-6.1-1.4-8.3c5.2,1.1,2.7,1.8,6.7,0c-1.6-4.3-0.2-1.3-1.8-3.8c-1.6-2.9-1.8,0.2-6.3-6.1c0.7-1.3,4.5-7.9,4.7-8.3
	c5.8-6.8,0.7-0.7,7.7-4c2.9-1.6,4.7-5,6.1-7.2c1.3-1.8,3.8-5.8,5.2-4.7c0.9,0.5,1.3,0.9,1.4,1.1c0.2-0.2,0.5-0.4,1.1-0.5
	c5-1.6-4.3-2.7,8.3-2.9c-0.5-4.7,0-2.7-2.7-3.8l-5.8-1.3c8.6-0.5,2.2-0.2,6.7-1.6l9-0.5l5.2-10.8c0.2,0,0.5-0.2,0.7-0.5
	c5-4.7,6.1-5.8,13.7-9c0.2,0,1.8-0.7,2.2-1.1C292,698.7,292.4,698.2,292.9,698.2z M253.3,730.9C253,731.5,253.7,731.5,253.3,730.9
	L253.3,730.9z M73.3,669.9c-2.2,1.3-0.5,0-3.2,1.8c-13,9.2-6.3,6.1-6.7,8.6c-0.2,3.8,4,4-5.2,4c-8.6,0-1.8-0.2-7.2-2.2
	c-5-1.6-6.1,0.2-14.2,0.5c0-8.5-1.3-7.4,3.2-11.7c-5-1.3-4,0-5.3-5c-2.5,0-3.8,0.4-5.8,0.9v36.4c3-7,5.3-15.1,13.5-16.2
	c6.7-1.1,7.8,0.7,11.4,1.8c18.5,5.2,20.2-15.7,27.2-20.7C79.4,662.9,82.5,664.1,73.3,669.9z M99.3,657.9c-5.6,1.6-3.5,1.8-8,4.9
	c1.2-4.8,1.9-4.8,3.3-9.5c-10.1,5-1.1,2.3-13.1,8.3l7.2,3.3l2.4,3.1c5-2.3,2.1-2.3,6.6,0C100.3,658.2,101.4,667.4,99.3,657.9z
	 M270.8,627h6.7c0.2-5,0-3.2,1.6-6.7C272.4,620.9,272.4,621,270.8,627z M274,684.7c6.7-1.6,5.2-4,8.3-9.7
	C276.7,676.2,274.5,678.2,274,684.7z M223.1,648.5c1.3,5,0,3.8,5,5C227,649.6,227.6,648.5,223.1,648.5z M194.8,657.8
	c4.7-1.3,3.8-0.5,5.2-4.3c-4.9,1.1-8.5,1.3-10.8,5.6c-0.7,1.3-1.6,4-2.3,5.8c-2.2,4.3-1.8,1.3-3.4,6.7
	C191.9,668.6,191.4,659.1,194.8,657.8z M297,320v5.4c7-3.8,3.3,0.6,5.1-5.4H297z M220,329v3.1c4,0.7,4,1.3,8,1.6V329
	C221,330.3,226,330.3,220,329z M251.2,313.9c-1.3,0.5-2.2,0.5-3.8,0.7c-2.9,0.7-1.1,0-2.9,1.1c1.3,3.8,0.2,2.9,2.9,2.9
	C250.8,318.4,250.1,317.5,251.2,313.9z M223.9,430.7c4,1.8,6.7,3.8,11.7,4.7c-6.1-7.9-5.6,1.6-3.4-8.3c-10.3,2.3-8.3,1.1-8.3-11.7
	l-5-3.2c0.2,9.5,1.6,11.2,2,18.5c-2.9,4-5.2,7.4-6.7,13C218.1,440.7,221,435,223.9,430.7z M242.9,313.7c-3.4,1.4-2,0.5-4.3,2.3
	c-3.4,2.7-1.8,1.3-4,4.3C241.8,320.4,242.3,320.9,242.9,313.7z M130.8,386.5c15.1,0.4,4,6.8,18.2,8.3l0.5-1.3c0-0.2,0.2-1.8,0.5-2.7
	c1.3-4.5,0.5-2.7,2.2-6.1c-7.4,0.2-7.2,2.7-12.4,1.1C133.1,384.1,135.4,380,130.8,386.5z M137.2,360.3c7.2-0.7,6.5-1.3,6.7-8.3h-3.4
	C138.9,358,138.9,354.2,137.2,360.3z M153.6,368.1c-0.2,0.2-0.5,0.5-1.1,0.5c-4.5,0.5-18.2,4.7-20.3,7.7c0.9,0.4,0.9,0.7,0.9,0.9
	c0.2-0.2,0.5-0.4,1.3-0.5c2.2-0.7,0,0,2.9-1.8c2,6.8,0.9,3.4,6.7,6.5c13.7-6.7,1.8-2.9,11.3-8.3
	C153.6,370.3,154.5,369.9,153.6,368.1z M245.9,333.5c1.1-3.8,1.3-3.8,1.8-8.3c-5.2,3.8-2.7-1.1-3.4,6.7c-1.8-0.5-6.3-6.1-9.7,3.2
	C239.5,333,239.1,333.5,245.9,333.5z M264.7,418c-7,3.8-5.4,3.6-9.7,9.9c4.3,1.3,1.3,0,4.7,1.8C265.3,419.4,264.2,425.7,264.7,418z
	 M143.9,343.3l-1.6,6.7h6.7C146.1,345,148.7,346.6,143.9,343.3z M376,541.4v-6.7c-6,0.5-5.6,0.5-8.3,4.7
	C371.5,540.7,372,540.9,376,541.4z M517,504.7c0-12.4,0.7-19.8,4.7-28.1c-6.1,1.6-5.8,2.3-7.7,8.6c-4,12.2,2.7,9.2-7.4,18.7
	l-7.4,10.8c-12.4,20.9-15.8,10.6-29.3,11.9c-7.4,0.7-7.7,4-12.4,5.8l-32.8-24.8c2.9-13.1,0.7-24.1,0-34.6c6.3-1.6,12.2-2.2,16.9-6.1
	c4.5-3.8,5.8-9.2,12.2-11.2c7.4-2.2,9.6,3.8,17.2,4c11.3,0.2,5.1-6.3,18.1-6.7v-3.2c-6,1.3-11.4,5.8-17,6.3
	c-17.5,2.3-11.4-13.5-31.2,4.7c-8.5,7.7-24.8,5.8-34,12.2c-6.1,4.3-6.3,8.3-13.1,9c-15.3,2.3-10.8,5.8-33.3,4
	c2.7,5.6-1.1,9.2-8.3,9.7c-0.5-6.3-0.7-3.2-2.2-9.2c-1.1-4.7,0-2.9-0.7-7.7c-1.3-9.5-5.6-9-5.8-15.7c-0.7-13.7,2.9-14.2-2.7-27
	c-2.3-5.6-2.2-3.4-5-7.9c3.2-13.1,7.7-19.6,9.7-34.6c0.7-5,1.6-9.5,3.4-13.1c11.3,2.7,16.4,1.6,26.6,6.1l12.8,5.6
	c4.5,1.8,6.7,4.3,10.1,8.3l18.5-12.8c6.8-4.5-1.6,1.1,6.1-2.2c0.2-0.2,0-0.5,0-0.7c-3.2-0.5,0.5-8.6,8.3-7.2l3.8,0.9
	c6.3,2.3,4.7-3.6,2.9,5.4h5c-1.6-8-2.7-3.1,3.8-6.3c1.4-0.7,2.1-1.1,2.3-1.2c0,0,0-0.1,0.1-0.1c6.3-3.4,9-6.9,16.4-0.2
	c6.1,5.2-2.7,3.9,9,4.3l-4.7-8.6c-3.8-6.1-11.9-7.2-19.3-5.2c-0.5,0-0.7,0.2-1.3,0.2l-2.7,0.7c-2.7,0-2.9-0.7-5-1.8l-1.8,6.7
	c-10.3-0.2-3.2-1.1-11.3-3.4c-4.3,3.8-7.7,7.7-11.3,11.7c-6.1,6.1-0.5,0.7-7.4,4.3c-4,2.2-4,3.2-7.7,5.6c-7.4-3.8-8.3-5.2-17.5-8.6
	c-6.3-2.2-13.7-5-18.7-9.2c-0.4,0.4-1.1,0.9-1.8,1.6c-3.4,2.7-1.3,4.3-6.8,0.7c-4.5-2.7-2.2-1.1-4.3-4.3l-3.8-6.3
	c-4.3-8.6,0.2-16.9,0.2-28.1c-2.2-1.6-3.4-2.3-6.1-4l-5.6-4.3l-5,4.7c-1.1-4.7-2.3-6.8-6.3-10.1c-5.2-4-2.2,1.3-5.2-3.8
	c-2.2-3.4,4-1.1-14.6-16.2c-5.2-4.3-6.3-5-6.7-14.6c3.4-2.3,4.7-3.8,9.7-5c0-7.4,1.1-11.2-1.6-16.4c6.7-0.5,7.2-1.8,11.7-5
	c-14.6-3.4,1.3,1.3-13.1,1.6c-1.8-7.7-0.5-5.2-0.7-10.1c-0.2-7.9-4.3-1.6-0.7-14c1.3-4,0.5-0.2,0.7-4.3c0.2-3.2,0.2-8.3,2.2-11.3
	l7.4-6.1c7.2-3.2,11.7,0.7,17.5,4.7c2.3,1.8,8.5,5,8.3,7.7c-0.5,4,1.6,7.9,3.4,11.9c9.7,0,12.8-1.3,19.3-0.7c0.2,0,4.7,0.7,5.6,0.7
	l5,1.6c2.5,0.7,1.8,0.7,1.6,0.7c0.2,0,0.7,0,2.5,0.4l36.7-1.1c0.2-0.2,0.7-0.2,1.1-0.2c0,0,4.7,0.5,5.6,0.5c0,11.7-2.3,5.8-2.7,14.2
	c0,10.8,1.6,9.5-5.6,10.3c0.7,9.2-2.2,2.2,5,5c0,7.7-1.1,5.5,0.4,11.2l-5.4,0.1c-1.6,6.3-3.4,10.3-4.7,16.7
	c-3.2,14.6-1.6,11.9-10.3,21.2c-4.7,5-12.8,11.2-14.6,18.2c7.9-5.2,13-13.1,20.9-18.5c5.6-3.4,4.7-0.2,5.2-7.7
	c8.5,0,8.6,1.1,15.1,1.6l-8.5,1.6c0.7,8.6,4.7,2.3,10.6,1.6l6.1,1.8c2.9-7.4-2.9-2.2,6.7-6.7c-1.1,3.4-2.7,4.5-1.8,6.7
	c4.5-3.2,6.1-3.2,6.7-10.1l-1.7-0.9c8.5-1.4,5-5.7,13.2-0.9c3.8,2.2,2.2,4.5,20.3,2.9c10.6-0.7,2.7-2.9,16.2-5.2
	c10.8-1.6,10.3-0.5,16.9-6.1l24.3,11.9c-2.7-5-12.8-9.2-19.6-13.7c0-11.2,3.2-24.7,2.7-27.2c-1.3-6.3-4-3.4-3.4-11.7
	c0-1.8,1.8-2.9-0.5-9c-0.7-2.3-1.1-1.8-1.8-3.2c-6.8,29.7,4.3,10.8,1.8,28.3c-0.5,3.8-0.7,6.3-1.1,7.9c-1.1,23.8-13,11.9-27.7,19.3
	c-10.1,5.2-1.3,2.9-14.2,2.3c-19.6-1.1-13.5-6.8-24.1-1.3c-4.9,2.5-3.9-0.2-5.3,5.1c-7.4,0.1-7.4,1.8-13.8,1.2
	c-6.8-0.5-7.4-3.4-15.1,0.2c1.6-6.8,0.5-7.9,2.7-15.1c5.2-16.4,9,4.3,9-33.8l0.2-2.3c1.3-13.5,14.6-29.7,16.2-35.1
	c1.1-2.9-4-8.5,5.6-16.7c2.9-2.7-0.2-0.5,3.8-2.9c5.6-3.4,11.9-2.9,18.7-4.3l-7.9-1.6c-6.7,0.2-17.5,2.7-21.4,8.6
	c-2.7,4.5,0,5.8-7.4,22.1c-1.3,3.4-1.3,5.2-2.9,8.5c-4.5-1.1-6.1-2.3-9.2-2.2c-6.1,1.1,4,1.8-15.7,1.3c-3.4,0,0.7,0.5-4.7,0.2
	l-27.5-5c-11.3-2.7-13.5,0.2-23.6,0.5l-2.7-12.8c-1.8-2.3,1.1-1.6-4-2.2c0.5-7.2,2.7-7.9,4.7-13.1c1.3-3.2,0.7-2.3,2.2-6.1
	c5.2-15.8,3.4-2.7,4-21.4c0-5.6,0.5-12.2,0.5-18.5c-5.6-3.2-5.6-2.2-9.7-6.7c-2.2,10.1,2.2,2.2,2.7,13.5c0.2,4.7-1.1,9.5-0.2,17.1
	c0.7,7.4,1.8,1.6-2.2,10.8c-1.1,2.9-0.7,2.7-1.6,5l-6.8,16.2c-9-2.2-6.3-3.8-14.8-1.8c0.7-2.9,0.2-1.6,1.6-3.2l3.2-3.4
	c-8.5,0-12.8-0.2-16.9,4.5c-1.1,1.1-0.7,1.3-1.6,2.7c0,0-0.2,0.5-0.2,0.7l-1.1,2.3c-1.3,3.4-2.2,3.2-3.2,7.9
	c-10.6-0.7-3.2-2.2-17.1-7.9c-6.1-2.7-27-19.8-27.2-20.2c0.7,3.4,0.5,2.2,2.2,4.5c0,0.2,2.9,4.5,3.4,4.7c4.5,5.2,3.2,2.7,8.5,6.3
	c5.2,3.4,4.3,5,7.4,7.7c0.6,0.6,0.5,1,1.3,1.4c1,0.5,2.2,0.2,3.2,0.2c-0.1,2.5,4.1,5,5.8,6.2c7.4,5.2,3.4-1.3,6.1,5.2
	c0.2,0.2,0.7,1.1,0.5,1.1c-0.2,0.2,0,1.1,0,1.3c0,0.2,0,0.7,0,1.1v1.3l0.9,14c-0.7,5-3.3,1.3-0.6,9.7c2.2,6.3,10.7,11.3-7.9,22.1
	c-14.4,10.6-13.3,10.3-24.1,7.6c-1.3,11.3-9,4.5-17.6,6.7c-0.2,0-0.7,0.2-0.7,0.2l-7.4,1.1c-0.2,0-0.7,0.2-1.1,0.2l-18.2,10.8
	c-5.6,5,0,2.9-7.2,5.8c-2.3,0.7-2.3,0.5-4,1.1l-14,4.3c-6.3,0.7-9.2-4.5-17.1-6.8c-10.1-2.9-1.8,3.8-12.4-0.7c-5.6-2.7-5-5-15.3,0.7
	c-0.2,0.2-0.7,0.5-1.1,0.5l-14,9.2c-7.2-5-7.4-11.2-29.9-27.7c-6.1-4.5-20.3-3.8-27.7-3.8c1.3,1.1,14.8,9.2,20.9,6.3l9.2,8.3
	c9,7.7,2.3-1.6,15.1,14.6c3.8,4.5-2.2,1.3,4.3,4c-2.9,4.7-2.2,0.7-10.3,12.8c-1.8,2.7-3.2,3.4-5.6,6.7c-4,5-4.9,1.6,0.9,3.7l15-19.6
	c10.1,2.2,4,4.7,16.7,4.7c0.7-9.2-2.3-0.7,5.6-5.8c8.6-5.6,1.3-1.8,4.3-9c9.5,0,25.9,4.5,33.7,9.2l2.2,1.3c6.3,3.8,2.3-1.8,5.6,4.3
	l2.3,12.8c4.5,25.4-2.2,18.5-9.2,31.5L175,395.3c-7.2,7.4-11.7,11.7-12.4,19.3c0.2-0.2,1.1-0.7,0.7-1.1l14.8-16.4
	c9.7-8.3,7.7-7.2,14.2-20.7c9.2,2.7,4.5,5.6,13.5,14.6c7.9,8.3,10.1,5.2,19.3,10.3c-1.1,4.7-1.6,5-1.6,11.3l5-9.7l24.7,3.4
	c-4.7-6.7-10.8-2.9-18.7-6.1c-4-1.6-1.6-1.8-7.4-4.3L217,392c-5-1.3,0-0.5-0.5-1.6c-2.3-4.5-2.3,1.3-8.3-5.2
	c-5.2-6.7,2.7-4.3-9.2-10.6c6.7-13,6.7-2.9,5-19.8c-1.1-8.5-1.8-17.1-3.4-24.7c12.4-6.1,16.9,0.2,23.6-9.2c3.8-5.2,2.2-5,8.5-8.3
	c2.7-1.6,8.3-4,11.7-5c5.2-1.6,8.5-1.8,13.5-1.6c15.3,1.3-0.7-3.1,15.7-6c1.4-0.4,5,0.5,5.8,0.5l13.7-8.5c1.3,15.3,0,11.3,5,14.8
	c9.5,7.2,15.7,14.6,22.1,22.1c9.7,11.7,23.6,0.2,20.3,23.8c-1.1,6.3-6.7,7.7-0.7,19.6c5.2,10.8-0.7,12.2-1.8,20.2
	c-1.1,7.4,1.1,7.4,0.5,11.7c-0.5,5-2.3,4.5-4.3,8.5c-2.3,5-1.1,6.7-3.4,11.3c-8.6-0.2-8.3-2.7-19.1-0.7c-10.1,1.6-13.7-1.6-25.9-5.6
	c-6.7-2.2-1.1-1.3-8.6-1.1c-13.5,0.5-2.9-4.7-15.7-5.8l2.7,2.3c2.3,2.3,0.7,0.5,2.3,2.7c1.8,1.3,4,3.4,5.8,4
	c6.8,2.2,6.3-0.5,11.2,2.2c3.8,1.8-0.7,0.2,4.5,2.2c2.9,1.1,6.1,1.3,9.2,2.3c10.8,4.3,1.3,4.7,15.7,2.7c16.2-2.3,19.6,6.8,23.2,18
	c1.8,5.8-1.1,10.6-0.5,19.8c0.5,6.1,4.7,11.2,7.9,25.4c0.7,4.5,1.3,5.6,2.2,9.2c-6.3,0.5-4.3,1.6-11.3,1.6c4,8.6-7.7,11.7,4.7,14.8
	c1.3-15.7,9.7-11.3,19.8-18c2.9-2.2,2.2-1.8,4.5-2.3c8.5-2.2,9.7-1.6,20.3-5.8c4.3-1.8,7.9-2.2,12.4-4c8.5-3.4,9.7-10.1,20.3-12.8
	c11.7,1.6,5.2,32,5,38.2c9.2,6.1,26.5,13.7,33.1,26.1c-9.5,0.2-9.2,1.8-10.6,10.1c-1.3,9.2-2.7,5.6-7.7,13.1
	c14.8-4,8.6-18.2,32.6-27c23.8-9,17.6,10.3,38.2-23C511,505.6,510.1,507.9,517,504.7z M328.4,562.8l1.6,1.6
	c10.6-2.9,13.1-15.7,13.1-26.5c0.2-2.9-3.2-15.8-11.5-18c0.7,7.7,1.6,4.3,5,9.7C341,536.4,340.1,558.5,328.4,562.8z M272,322.4
	c-5,1.6-0.9-2.4-4.7,4.6h4.7V322.4z M264.3,313.7c-8.3-0.5-11.3-3.2-11.7,8.5C266.8,311.6,257.5,324,264.3,313.7z M236.2,753.9
	c7.4-4,4.3-1.1,8.3-8.3c-2.5-1.3-2.7-1.8-6.7-1.8C243.4,749.1,238.4,745.5,236.2,753.9z M94.6,75c1.4,4-0.9,4.7,4.7,4.7
	c2.3,0,4-3.7,5-4.7H94.6z M93,94.5V90h-5.1C90.6,95,86,92.7,93,94.5z M56.8,104.4c1.1-4,2.5-7.2,3.2-10.6
	c4.5-20.3-4.5-10.3,13.5-22.5c0-24.3,2.9-22.1,9.5-33.3c0.4-0.7,0.7-1,1.1-2h11.2c-5,4-4.3,3.8-0.4,7.4c-5.4-0.5-6.7-5-11.7,9.7
	c-2.9,7.9,0.5,16.2-4.5,22c-5,5.8-9.9,2-11.2,13.1c-0.5,6.1,1.6,1.6-0.7,9.5c-1.1,3.1-2.4,5.4-3.5,9.7l11.6,5v10.3
	c-5,17.8-7.7,5-12.2,23.6c-2.7,10.6-1.4,5.4-6,12.2c3.4,1.1,26.5,12.8,29.9,15.1c0.5-5,2.2-7.9,5-9.7c7.9-4.9-4,3.1,9.7-0.2
	c-1.6,5.9-1.4,2.7-3.8,6.1c-1.8,2.7-3.2,5-4.5,7.2l23.8,1.8c7.9,1.6,5.8-1.1,10.8-1.1c4.5-0.4,4.1,1.1,8.5,1.8
	c2,0.5,8.5,1.4,10.3,1.6c13.3,1.8,14-1.8,20.7,4l-47.9,1.6c-9.5-2.9,2.5-0.4-3.2-2.2c-2.7-1.1-2.9-0.4-6.7,0.2
	c-8.6,1.1-11.5,0.4-18.2-1.3c-3.1,6.1-2.5,8.8-2.2,11c-0.3,0.7-0.5,2.2-0.5,3.5c2.7-1.8,1.7,1.3,2.7-3c4.5,2.9,2.3,0.5,4.7,5
	c0.9,1.3,0.5,1.6,1.6,3.4c4.5,8.5,5.8,9.5,8.5,21.2l-6.7-3.4c-6.1,9.4-5.2,2.2-14.8,6.7c0.7-6.3,1.1-3.6,5.2-4.7
	c7.7-1.6,2.9-1.9,9.5-3.7c-0.7-9.5-4.5-11.7-6.3-19.7h-4.7l-4.9,4.8c1.8-7.9,3.1-3.5-1.6-5.1l-3.4-4.7c5,1.4,2.9,0.5,6.7,3.2
	c0-11.9-3.2-6.8,1.8-16.4c-3.8-1.8-5.6-3.6-8.3-5.2c-5.9-3.2-15.1-7.2-21.2-4.3l-5.8,3.2c-1.2,0.4-1.7,0.6-1.9,0.6
	c-0.1,0.1-0.3,0.1-0.6,0.3c-2.7,1.1-0.3-0.4-3.7,1.8c-5.9,4.1-11.4,6.8-15.4,8.6v-7.2c2-0.7,4-1.1,7-1.3v-3.2c-7,1.4-5,3.2-7-0.2
	v-1.4c8-0.5,8.4-3.2,17.2-3.4c-2.2-6.7,0.4-0.9-2.8-2.2c-0.2-0.4-1.3-0.5-1.8-0.5c-0.4-0.2-0.9-0.2-1.1-0.2
	c-0.4-0.2-0.9-0.2-1.1-0.2c4-1.6,5.6-4.1,8.3-8.5l-3.2-4.7l6.3,1.8C52.1,140.8,61.3,132,64,128c2.7-3.8,2.9-6.5,2.9-12.2
	c-9.2-4.5-12.4-7.4-18.1-7.9c-8.1-1.1-12.8,0.2-18.8,0.9v-2.3c1-0.4,7.5-1.8,7.6-1.8C43.9,103.9,50.5,104.4,56.8,104.4z M51.6,165.5
	c-2,4.5-1.6,1.8-1.8,8.5l7-6.3C54.4,166,54.8,165.5,51.6,165.5z M82.9,94.5c-4.5-7.4-10.1,1.1-8.3,8.3
	C81.6,100.7,71.5,97.8,82.9,94.5z M60.6,46c-0.2,0.2,0.7,0.7,0.7,0.7c1.3,2.7,1.3,1.1,0,6.7l6.8-6.1c-4-2.3-2.2-2-8.3-2
	C60,45.4,61.1,46,60.6,46z M43.3,42c0.2-3.8,0.1-1.7,0.8-4.1l1.2-1.9H38v1C47,40.2,34.8,35.9,43.3,42z M180,96.5v-5
	c-6,1.6-6.7,0.7-8.3,6.7C176,96,174,96.5,180,96.5z M35,200.2c-1.1,1.3-1.1,3.2-1.6,5c5.6-2.9,5-1.3,6.7-8.3
	C36.8,198.6,38.2,195.1,35,200.2z M63.5,208.7c5-0.2,3.4-0.7,5.8-0.2l4,1.8c-1.3-6.3-1.3-1.6,0-8.3
	C61.4,210.3,65.3,202.5,63.5,208.7z M79.8,111.3c5.2-2.9,5.8-0.7,6.7-8.5c-8.8,0-3.1-1.1-4.9,2.9C79.5,110.2,81.1,105.9,79.8,111.3z
	 M93,75.1V72h-6.7C89.2,78,85,76.7,93,75.1z M128.8,56.6c16.7,32,20.2,21.4,28.8,36c6.8,11.2,1.1,16.7,1.1,32
	c-0.7,0.2-0.9,0.4-0.9,0.5c-0.2-0.2-0.7-0.7-2.9-1.6c-0.2-0.2-0.7-0.5-1.3-0.7c3.8,7.9-2.9,7.9-8.3,11.7c9,0,9-1.8,14.8-5
	c3.2,14,4.3,7.9,8.3,15.1l2.2,5.8c4.5,10.3,3.8,0.7,4.5,10.6c0.7,0.2,1.4,0.4,1.8,0.5c-1.3,0.5-2.7,2.5-0.2,9.4
	c2.9,8.5,0,11.3,6.7,16.4c-1.3-5.8-6.1-10.1-0.5-10.3l24.7,13c5,2.3,6.8,3.4,15.7,4c0.7,9.2,2.9,2.9-6.1,18.7c-2.3,4-4.5,5.8-5,9.7
	c-0.5,4,1.1,8.3,2.9,11.2c0-26.8,15.3-21.2,11.3-38.2c5.8,0,5.8,0.2,10.6-1.3c15.1-4.5,11.3-9.5,27.5-15.1c2.9-1.1,2.2-2.2,7.4,0.2
	c9.2,4.5,5.6,8.6,14,11.2c-6.8-13-9.3-10.6-14-17c6.8-0.5,1.4-1.7,5.4-8.5c3.8-6.7,4.6-3.8,7-12.3l-15.3,16.2c-4,5.2,2.2,2.3-5,4.5
	c-24.8,7.4-1.6,0.5-21.4,10.3c-7.9,3.8-7.9,5.2-20.9,1.8c-15.7-4-10.8-4-23.2-11.3c-6.3-4-14.6-2.2-16.9-13.5
	c-1.1-6.1,1.3-3.4-3.8-11.9c-13.7-22.5-14.2-18.2-12.4-42.7c1.1-15.8-8.5-20.2-15.8-26.5c-9.5-8.5-7.4-4-14.6-17.1
	c-4.5-8.5-1.6-2.7-0.7-12.2c-11.9,7.9-7.2-3.8-12.8,2.2c-2.9,2.9-1.6,1.3-2.2,6.1L128.8,56.6z M139,40.4c-9.2,5.9-5.9-3.6-6.7,6.7
	C138.1,45.4,137.4,46,139,40.4z M150,48.3c0.5,0,0.7-0.2,1.3-0.5c0.2,0,0.7-0.2,1.1-0.2c7.4-2.9,1.8,1.8,6.3-4
	c-5.8,0-4.5,0.2-8.3-1.6C148.2,45.4,142.1,51,150,48.3z M135.8,139.4c0,0,1.8,6.3,4.7-5C129.1,137.2,135.4,139,135.8,139.4z
	 M129.3,86.4c-4.5,2.9-3.4,0.6-5,6.6h6.7c-1.3-3-0.5-0.7-1.1-3.4c-0.2-0.4-0.2-1.4-0.4-1.6L129.3,86.4z M102.7,96.5
	c-4-5.6-1.8-1.8-8.3-5c0.2,3.2,0.5,1.6,1.6,3.2l1.6,1.8c-5.2,1.8-1.1-2.3-4.7,4.7C106.5,100.1,86.8,100.1,102.7,96.5z M107.7,45.1
	c0.4-5,1.3-7.1,2.3-9.1h-4.1l-0.4,0.7c-2.3,1.8-1.3,1.1-4.5,1.8C102.3,44.2,101.8,43.7,107.7,45.1z M112.6,126l-2-7l-4.7,5.4
	L112.6,126z M117,63.4c-8,1.1-10.8,0.2-11.7,8.3c3.8-1.8,6.7-2.9,11.7-3.2V63.4z M45.1,156.5c-1.6-4.5,0-5.8-6.7-7.4
	C39.5,159.3,37.3,153.3,45.1,156.5z M35.2,485.1c10.1-6.3,0.4,0.7,11.5-1.6c-2.9-4-3.2-4.3-9.7-4.7L35.2,485.1z M53.2,526.6
	c-3.8-5.2,2.1-1.1-12.9-5.6c-4.3-1.3-7.3-1.3-11.3-2.2v6.5C39,524.5,50.6,526.6,53.2,526.6z M36,399.4c3,0,0.5,3.2,5.9-1.6
	c-5-1.3-4.6-1.6-10-6.7c-0.9,0.5-1.8,0.9-2.8,1.1v6.8h7V399.4z M491.4,641.1c-4.1,3.4-7.7,2.9-12.8,5.6c-10.1,5-1.3,4-12.4,3.2
	c-8.5-0.5-23,4.9-29.3,7.7c0,9-0.4,16.9-5,21.4l-1.8,1.3c-5.4,4-7.2,7.7-11.2,13.5c3.2,5,6.7,9.9,8.3,16.7
	c-3.8-2.9-4.5-6.8-7.7-10.3l-6.1-4c-6.5-0.7-10.5,1.8-16.8-0.5c-4.5-1.3-14.6-1.3-20.7,3.4c-9.5,7.7,1.5,6.1-18.1,11.7
	c-4.1,1.3-3.7,6.1-8.7,7.9v3.2c12,2.5,12.6,10.4,20.9,17.1c4.3,3.4,6.5,7.4,10.8,9.5c8.5,4.5,4.5,1.4,10.1,9.7
	c10.3-2.3,12.6-5.2,18.2-13.1l11.2-13.5c2.9-3.2,0.5-2,5.2-3.2c-4,10.4-15.1,16.9-19.6,26.6l-3.5,16.8h-3.9c0.4-2,0.7-4.2,0.7-7.4
	c-7.9,0-6.8,1.2-13.1,1.8c-6.3-9.7-9.4-5.6-14.6-13.5c-2.9-4.5-10.1-10.1-14-15.8c-4.1-6.7-10.3-11.3-13.1-1.1
	c-1.4,6.1,0.5,1.3-0.7,6.3c-0.5,2.2-1.8,4.3-2.9,6.7l-10.8,20.3c-0.3,0.5-0.9,1.7-1.4,2.7h-4.7c0.5,0,1.3-0.5,1.3-0.8v-8.3
	c-7,3.7-5.6,3.1-9.1,9.1H307l-8.2-1.1c-0.2,0.4-0.4,1.1-0.5,1.1H291c1.5-4,4.3-7,10.7-6.5c11.3,0.9,15.1,0.3,23-6.3
	c10.8-8.6,8.4-25.6,13.7-37.3c-2.2-1.1-1.5-0.7-4.4-2.3c-6.5-3.4-10.9-2.3-14.3-10.3c-7.2-17.3-4.8-11.3-1.8-25.6v-13.1
	c0-9.7-2.4-5-4.5-10.3c-3.2-7.4,5.4-0.7-4.9-8.5l-0.7-0.7c-4.9-3.6-2-4-7.2-7.9c-1.8,5.6,2.2,1.3-5,5c2.2-7.6,8.3-11,8.3-18.7v-1.8
	c0,0,0.1-0.5,0.1-0.7l0.7-2.3c0.5-2.9,0.7-2,0.7-5.8c-8.5-1.8-4,1-9.5-0.6c-18.2-5.2-23,3.7-32.2-0.6c-7.7-3.8-9,0.3-11.2-5.7h-4.9
	c-2.2,9-1.6,5.2-8.5,8.4c1.3,13.7,4,4.1-3.2,14.9c20.5,38.9,7.4,15.7,9.7,46.3c-9.7-7.2,7.2-14-10.3-37.6c-4-5-5.4-4-6.1-11.9
	c5-1.3,3.8,0,5-5c-6.5-7-14-11.3-24.7-6.3c-6.7,3.4-0.5,1.6-6.8,6.3c2.2-9.4-6.3-10.8-12.4-14c-2.3-1.1-8.5-5.6-10.3-6.3
	c-8.1-3.1-4.1,0.4-11.9,2.2c-3.6-3.2-6.5-6.8-10.8-10.6c-3.1-2.5-10.8-4.7-15.3-5.8c-0.4,9-3.1,15.1-8.3,21.4
	c-7,8.1,1.6,13.7-6.8,19.8c1.4-6.1,0.9-6.7,0.7-11.7c-0.2-11.3,2-3.4,2.7-13.1c2.3-1.1-0.2,0,2.2,0l4.5-24.7
	c3.1-10.6,5.9-13.7-12.2-10.8c-3.1,0.5-1.8,0.5-4.7,1.8l-9.5,2.3c-1.3,0-4.9,0.5-5,0.5c-8.5,0.9-10.1,1.8-16.4,6.1
	c-1.1-4.9,0.2-2.3-3.2-5l-3.4,6.7c0.2-7.9,1.8-5.6,0-10.3c-1.6-4-3.2-1.8-4-6.1c-0.3-1.6-0.6-3.4-1.5-4.8c-0.9-1.4-3.6-2.4-3.6-2.4
	l-5.6-0.3l3.8-2.3c0,0-0.4-2.1-0.6-3.2c-0.3-1.3-3.8-2.1-5-2.5c-1.8-0.6-3.6-1-5.5-1.3c-4.2-0.7-8.5-1.2-12.8-1.8
	c-6.5-0.9-12-2.9-19-4.1v-4.5c1,0,1.1,0.7,2.4,0.7h1.1l5.2,1.7c17.5,4.5,26.8-3.1,39.6,11.4c0.7,0.9,1.1,1.1,1.3,1.3
	c0,0,0,0.2,0.5,1.3c2.7,4.3,3.4,9.9,8.5,12.2c3.4,1.6,29.9-3.2,33.3-4.5l9.5-1.3c10.8,0.5,7.9,1.6,11.9-11.2c1.6-4.9,7-5.4,6.3-12.8
	c-1.1-8.8,1.6-2.9-3.4-5c2.2-3.1,1.6-2,4-4.3c2.5-2.7,2-2.2,4.3-4.3c4.3-3.8,3.8-6.7,6.7-11.3c-0.5-0.5-1.1-1.3-2.2-2.7
	c-1.4-1.8-1.3-1.1-1.3-0.9c-0.2-0.2-0.2-0.5-0.7-1.8l2.2-11.9c2-4.1,2-2.5,4.3-6.8c3.1-5,2-0.2,1.8-6.3c-0.7-9.5-6.8-9-7.9-14.2
	c-0.5-2.3,1.1-3.6,2.2-7.9l-10.3-4.3c-5.2-0.4-10.1-2-15.3-4.7c-7.9-4.3-3.2-2-6.1-10.6l-2.9-5.6c-1.6-2.5-7.4,0.5,0-6.3
	c-9.4,0-6.5,1.4-8.3-3.2c3.6-1.6,5.2-0.5,9.7,1.6c0-9.5-2.9-6.8-5.2-14.6c-4-12.1,5.6-16.6-12.4-20.3c-10.8-2.3-8.6-3.6-10.2-2.9
	c-7.9,3.2-3,6.1-11.3,8.3c1.4-6.7,0.8-6.7,6.8-8.3v-3.4c-4-1.3-6.5-7-9.4-10.3l-0.9-0.7l-1.8-2.9v-0.7l-7.7,1.3
	c-11.9,0.5-21.9-3.2-33.2-5c-7.7-1.1-6.1-0.4-11.1,0.2V367c1-0.4,1-1,1.1-1c-0.4,0-0.1,0-1.1,0v-10.1c1-0.2,2.5-0.5,4.1-1.2
	c0.2,0.4,0.5,0.9,0.3,1.1l0.7,3.3c2.3,3.6-0.2,1.9,4.5,1.9h2.9c7.6,1,16.7,5.8,24.7,6c2.9,0.2,12.2-0.7,18-0.7c0-6.7,0-5-3.2-8.3
	c7.7-0.9,4-2.2,7.2-7.7c2-3.6,6.3-5.2,10.3-7.9c4.5-3.2,1.6-2.7,7.2-4.3l-7.9,8.5c-0.5,0.2-3.6,2.9-3.8,2.9c-4,4-2.3,0.5-4,6.1
	l-0.7,4.3c-2.2,8.5,0.9,13,5.2,20.7c2.9,5.2,5.2,5.6,10.8,7.4c2.5,0.9,2,0.5,5.2,1.6c24.5,6.7,8.8,9.5,16.2,24.8
	c1.1,2.5,1.8,0.9,4.5,7.2c2.2,4.9,2.3,8.8,1.1,13.2c-1.3,4.5-0.2,5.3-0.2,12.3h16.7c-3.2,9,0.5-1.5-3.2,3.2c-0.5,0.9-6.1,0,1.8,2.7
	c9,3.2,14.6,1.8,20.9-0.5c6.7-2.7-0.4-0.5,6.8-0.5c8.5,0.4,9.7-0.8,11.3-7.8h3.2c0,13-6.7,11.6-14,12.7c-6.1,0.9-1.3,1.6-9,2.1
	l5.6,23.6c0.2,7.2,0-1.6-0.5,4l0.2,4.2c0.1,7.7-4.8,7.7-4.3,13.8c0.2,3.4,1.6,5.9,2.3,9.2l7.9-1.3c5,1.3,2.9,0.5,3.4,6.3
	c7.9-0.2,11-5,17.6-6.8c2.2-0.4-1.1-0.2,3.2-0.2c0,0,3.4,0.5,4,0.5c3.1-14.4,2.9-7,14.8-13.1c-1.6,6.8-2.3,6.5,6.7,6.7
	c1.3-4.7,0-1.4,2.3-5.8l4.5-5.2c7-4.7,6.5-0.9,10.8-9.2c2.5-4.9,4.5-7.9,10.2-9.2c8.6-2.2,7.9,0,14.7,1.6c6.5-4.5,9.8-5.8,17.6-5.8
	c3.4,0,6.2-1.1,10.5,0.2c5.6,1.8,3.9,3.2,10.9,4v3.2c-6-0.5-11.3-6.7-26.4-0.5c-5.8,2.3-3.5,3.6-8.8,5.2c-7.7,2.7-14.6-4-22.5,2.9
	c-3.4,2.9-3.4,7.7-6.1,10.6c-4.1,5-4.7,0.4-9.7,6.7c-1.4,1.6-5.6,9.2-6.7,11.3c3.8,5.8,12.2,8.1,11.2,17.6
	c-2,22.1-0.4,12.8,10.3,38.3c7.4,18.5,6.1,7.6,0,29.7l4,4.3c0.2,0.4,0.5,0.5,0.7,0.5c0.9,0.5,1.3,0.7,1.3,0.7s-0.4-0.4,1.1-0.4
	c0.4,0,1.1-0.2,1.6,0c6.7,0.4,8.1,6.7,15.8,3.2c11.9-5,12.4-2.9,24.1-2.7c6.3,0,3.8,0,9,1.1c0.2,5.6,0,10.1,1.8,14.8
	c3.1,6.1,0.4-2.9,3.2,5.1h-5c0,6-1.1,9.2,1.8,12.9c4,5.6,2.3-1.3,9.5,12.2c0.4,0.2,0.5,0.5,0.5,0.7c4.5,7.9,3.6,12.6,3.4,21.6
	c-0.2,14.6-2.3,10.6,1.6,25.4c1.8,6.7,1.4,5.2,8.6,8.5l9,4.3c5.4-14.4,14.9-7.2,20.7-12.2c3.4-2.9,5.2-6.3,9.7-8.5l12.4-7.4
	c9.5,6.3,11.3,7.9,23,1.6c-1.3,7.2-4,4.5,3.4,5c0.5-8.3-0.5-2.2,3.4-8.3c7.7-11.9,15.7-9,12.4-28.3l-7.2-16.7
	c-7.9-16.2,0.5-11.7-6.1-27l-11.3-24.8c-3.4-7.7-6.8-7.2-14.8-10.1c-4.5-1.6-4.3-2.5-9.5-3.8c-1.3,5.6-7.2,11.7-11.9,13
	c-13.3,3.2-6.5-6.7-17.6,3.4c-5.4,4.5-11.9,4.1-18.5,6.3c-6.8,2.2-11,5.6-17.6,7.2c7.2-9.7,20.2-9.7,29.7-13.5
	c7.7-2.9,2.5-2,8.3-6.3c16.7,0,23.2,0.9,26.5-13.1c8.8,0.4,15.1,3.2,22.5,7.2c5.9,3.8-1.8,2,7.2,2.7c0.4-11.9,5.8-3.6,9.5-11.9
	l15.3-24.3c-0.5,4-10.3,37.6-15.3,34.4c-4.5-2.7-4.3-0.9-4.3-0.9l0.7,5.2c0.4,2.7,0.4,6.1,2.2,9.5l14,34.6
	c1.3,4.7,7.4,11.5,4.5,17.6c4.9,0.5,5,1.3,5,1.3l3.2,0.5c21.8-0.9,19.6-8.6,26.5-13.1c-0.5,5-7,10.3,3.2,11.3
	C476.1,644.9,484.8,641.3,491.4,641.1z M246.8,572.4c0-0.4,0.5-0.9,0.7-1.1c-6.1-2.3-3.8,3.1-7.2-6.1c-2.5-6.8-1.3-5.2-4.7-11.9
	c-1.6-2.3-1.6-2.9-2.3-4.5c-6.5-18.9,11.9-5.9-5.2-29.2c-3.2-4.3-5.9-8.8-12.8-7.2c-8.6,2-6.3,7.4-28.8,9.2c2.3,3.2,2.7,1.8,6.7,3.4
	c4,1.6,1.4,0.4,3.2,1.6c-12.1,2.5-0.5,4.7-14.8,4.7l3.2-1.8c2.3-1.6,0.2,1.6,3.4-2.9c-7.2-1.8-17.5-5.6-21.4-10.1
	c0,5.2,0,8.5-1.3,11.9c-1.8,4.1-2.7,5.8-8.5,6.3c-0.5,21.2-15.1,29.9-13.7,52.9c27.7,0,14.2,16,32.8,11.7c5.6-1.3,2-2.9,10.6,2.7
	l11.7,6.7l0.7,0.7c12.8,7.9,13.3-3.4,34.9,7.9c0.9-3.8,1.1-3.8,1.6-8.3c4.5-0.4,4.5-0.9,8.3-1.6c-0.5-19.8,0-6.3,3.4-19.8
	C250.8,575.8,241.6,583.2,246.8,572.4z M95.8,479c2.9-4.3,2.3-2.2,3.4-6.8c-4.1,0.4-4.5,0.7-8.1,1.6L95.8,479z M186.2,542.5
	c-2.7,4.5-1.3-0.5-2.9,5.6c12.4-6.7,6.7-5,10.6-11.2c0.5-0.7,1.3-1.6,1.8-2.2c1.8-2.2,1.8,1.3,2.7-5
	C183.3,537.6,193.4,530.8,186.2,542.5z M239.3,520c8.1-1.1,3.1,2.2,6.7-5C239.6,515.5,240.9,513.9,239.3,520z M77.8,418h6.7
	l-1.8-6.9c-5.4,2-1.1,0.5-3.1,3.9C79.6,415,78,418,77.8,418z M96.4,403.7c0-0.2-0.2-0.5-0.2-0.7l-5.2,4.5c4.7,1.4,5.9,3.6,7.2,0.2
	C99.4,404.4,98.4,407.5,96.4,403.7z M29,287.3v2.7l4-4.3C30.8,286.4,30,286.9,29,287.3z M30.1,279.6c6.1,0.2,7.1,1.6,11.9-1.6
	c9.7-6.8-0.2-12.4,2.7-23.6l0.5-13c6.1,1.6,3.4,1.8,8.5,5l-1.8-6.7c9.2,0,27.2-6.3,29.7-14.8c-5.2,1.3-9.5,5.8-14.2,5l-2.9-1.1
	c0.2-0.2-0.5-0.5-1.1-0.7c2.9,6.1,2.9,3.2-2.3,5.8c-2.9,1.6-4.3,1.8-6.8,1.8l-5.8-0.2c-0.5,0.4-0.9,0.5-1.3,0.7
	c-7.7-0.7-2.2,0.2-5.8-2.2c-4.3-2.9-0.2-0.2-3.4-3.4l-6.9-6.3c-0.5-0.5-1.2-1.1-1.2-1.6v12.8c4,4.7,4.6,6.5,4.9,10.3
	c0.2,6.7-2.3,7.4-2.8,12.2c-1.3,9.2,1.3,6.7,1.8,11.9c0.5,3.4-0.4,5.2-4.2,7.4c-0.2,0.2,0.3,0.2-0.7,0.4v6.8
	C30,283.9,29.6,283.7,30.1,279.6z M215.2,523.4c-2.2,8.5-4.5,4.9-7,11.3c11.9-2.9,8.6-8.3,11.7-19.8
	C211.4,518.2,218,511.7,215.2,523.4z M62.5,275.6c-5.8,0.9-0.7-6.6-6.1,3.4h11.7C66.5,273,68.1,274.7,62.5,275.6z M38.8,137.6
	c-2.2-1.1-3.1-1.3-5.2-2.5c-0.4-0.4-1.7-1.3-3.3-2.5l-1.3-0.9v7c4,1.3,8.5,2.3,15.9,2.3L38.8,137.6z M704.1,513.3
	c6.7-3.4,2.9,0.7,6.1-7.4c0.7-2.2,3.4-5.8-1.1-5.8C704.1,500.2,705.2,500,704.1,513.3z M45.1,55.1l1.3,2.7c3.2,0.7,1.8-0.5,3.4-2.7
	c-3.4-2.2-4.7-2.9-8.3-5c-4.3,2.9-3.4,0.7-4.7,6.7C41.1,54.6,38.4,55.1,45.1,55.1z M71.2,253c3.4,0,2.7,6.7,3.4-3.4
	c-3.2-0.7-2.7-0.2-5.2-1.9c0,0-4.5,5.3-4.5,5.3C67,253.1,69.1,253,71.2,253z M49.8,322.2c0,2.7,4.7,5.2,6.7,6.7
	c2.3-9.5,4-3.8,1.8-13.1C54.6,317.2,49.8,315.9,49.8,322.2z M457,549.5l6.3,1.1c7.2-0.2,8.5,0.5,14.8-4.7c2.7-2.3,3.4-3.8,5.2-6.3
	c-4-0.2-4.3-0.2-6.7-1.6C469.1,549.5,462.3,542.1,457,549.5z M361.5,406.1c1.3-1.8,0.7-1.8,1.6-4.7c-12.2-2.7,3.2,1.3-11.7,1.6
	l-0.9,5.4c-2.5,4.1,1.8,4.5-3.8,6.2l11.3,3.2c-1.6-4-1.1-1.3,0-6.7c-4.3-1.1-1.4,0.1-4.9-1.5c1.4-0.9,0.5-0.7,3.1-1.7
	C359.1,406.6,359.9,408.2,361.5,406.1z M326.7,257.8c2-2.9,2.5-4.3,3.4-8.3c-5.8,1.6-9.2,4.7-9.7,11.7
	C326.2,260.7,324.2,261.4,326.7,257.8z M343.1,261.2c8.6,0,9.4,1.6,9.9-6.7c-5.6,0-4.3,0.2-8.3-1.6
	C343.5,256.7,344.6,255.6,343.1,261.2z M564.7,772h2.9l3.5-4.5c2.7-3.4,2.3-2.9,4.5-6.8C567.1,762.8,568,766,564.7,772z M965,769.3
	c-2.8,1.3-4.4,1.7-5.6,2.7h15.7c4.4-3,5.9-5.5,6.9-7.3v-13.9c-3,5.6-4.7,13-4.7,13C973.4,765.8,969.7,766.9,965,769.3z M335.6,771.1
	c-0.2,0.3-0.5,0.9-0.7,0.9h3.3l5.3-6.1C337.9,766.9,339,766.6,335.6,771.1z M458.5,404.4c-4.3,0-4.7,0.5-7.2,2.7
	c-4.3,4.3,4.5,2.9-5.8,4C448.6,420.3,456.5,407.9,458.5,404.4z M865.4,455.6c6.8-0.7,4.7-1.6,7.7,0.7c0.2,0.2,0.5,0.7,0.7,1.1
	c1.6-4,0-2.3,4.3-4.3l10.8-3.2c4.3-1.1,1.6,1.8,4.7-2.7c-0.7,0-4-0.5-4.3-0.5c-6.3-0.2-1.4-2.3-6.8-2.7c-3.8-0.2-4.2,1.3-7,0
	c-2.9,6.8,1.1-0.2-1.8,6.7C867.4,453.8,869.3,450,865.4,455.6z M464.1,397.3c-3.8,1.3-5.5,1.2-6.6,5c7.4-1.6,6.2-1,12.7-2.5
	C470.2,399.4,470.7,394.9,464.1,397.3z M892.2,480h5c0.2-4,0.7-4.3,1.4-8.1c-12.8,6.1-4,3.5-13.1,8.4c1.6,4,1.1,1.1,0,6.5
	C891.7,486.3,891.7,487,892.2,480z M761.4,438.5l-5.8,8.6c-6.8-1.6-7.9-1.6-16.7-1.6c1.3,1.3,0,1.1,2.7,2.2
	c3.8,1.1,1.3-1.1,11.2,1.6c4.5,1.8,1.1-2.2,4.3,3.1c1.1,1.6,1.1,2.3,1.8,4.7c4,12.4,13.5,21.6,25.9,25.2c6.7,1.6,3.2,1.3,8.5,4.7
	c-1.1-4,0.2-2.7-2.9-5.6c-6.1-6.1-2.3,4.5-17.6-13.5l-6.3-6.7c-1.1-1.6-6.1-12.2-6.1-14c0-4.3,2.7-4.3,3.4-11.3
	C761.4,438.5,764.4,434.1,761.4,438.5z M457.9,158.3c9.2-9.7,4-11.7,7.7-17.1c2.9-4.3,2.7,0.5,4.5-6.8c-14,9.5-2.9,10.1-14.8,21.4
	l-10.8,10.6c-6.7,5.6-8.6,4.3-10.6,12.4c7-5.4-2.2-1.1,10.8-8.8C451.1,166.2,453.3,163.3,457.9,158.3z M419.2,155.6l-3.4-5
	c-2.3,6.3,0.7,2.7-7.2,1.3c-3.8-0.5-0.7-1.1-4.5,0.2c-7.2,2.3-9,10.6-10.6,12.4l-2.3,1.8c-3.4,1.8-1.3-3.4-3.4,2.3
	c4.7,0.7,3.4,1.6,7.2,0.2c9.7-3.4-2.2-2.3,11.9-7.7c-0.2,0.5,16.9-10.8,16.4,4.9c-0.2,3.2,0,1.3-2.3,4.7c4.5-0.2,4.5-0.7,8.3-1.6
	c0-0.5,0-1.1-0.5-1.3l-1.1-3.8l16.4-5C437.2,148.7,429.9,154.8,419.2,155.6z M429,203.4c3.2-2,16.9-8.6,11.7-13.1
	C436.2,193.5,430.4,198.6,429,203.4z M192,99.6c-7,3.4-3.3-0.6-5.3,5.4h5.3V99.6z M969.5,683c-12.8-18.7-11.1-1.8-11.7-16.7
	c-10.8,2.9,1.3,5-11.7,0.5c-0.7-0.3-1.2-0.5-1.4-0.6c0-0.1,0-0.1-0.1-0.1c-0.1,0-0.1-0.1-0.1-0.1c-0.2,0-0.5,0-1.4,0
	c-2.3,0-3.2,1.3-6.8,0.1c-24.3-6.8-12.8,6.3-28.3-7.3c-5.6-4.7-4-1.8-9.5-10.1c-1.1-1.3-0.2,0-2.2-2.9l-2.7-5.8
	c-3.8-6.3-4.7-1.3-5-11.3c-8.5,0.2-4.7,1.6-11.9,0.5c-6.8-1.1-6.7-2.2-14.2-2.2l-1.4-6.7c1.3-5-0.1-3.8,4.9-5v-3.2
	c-6-1.6-5.3-1.1-6.9-6.7c7.7-0.7,2.8,1.8,6.6-3.3c-5-3.4-6.4-3.2-6.8-11.2h3.4c-0.2-9,0.5-2.5-4.7-14.2c-1.3-3.2,5-0.3-1.8-2.8
	c-2.7,11.3,0.5,5.2-2.3,17.6c-2.7,10.6-0.7,9.7,4,16.9c-1.1,2.3-3.2,7.7-4,11.1c-1.8,6.8,0,7.2-0.5,11.7c-0.2,0.2-0.2,0.7-0.2,1.1
	c-1.8,9-3.4,0.2,0.7,13c0.5,1.6,0.7,2.7,1.1,4c0.7,2.7,1.1,3.2,1.3,7.2c-16.7,4-11.7,17.5-11.7,23c4-4.5,1.8-1.1,2.7-5.8
	c1.3-10.6,0.7-9.5,12.2-15.7l-0.2-12.4c-1.6-5.6-4.5,1.6-1.3-12.2c22.5,5.2,8.3,5.6,24.8,1.6c1.6,3.8,1.8,6.7,3.8,11.2
	c1.6,3.4,3.2,7.2,4.5,10.1c3.8,6.8,1.6,3.2,6.8,8.3c3.2,2.9,4.5,4.5,7.9,6.8c-7.4,10.8-1.1,6.8-2.3,17.6c-1.3,12.2-5.6,4.7-5.8,16.9
	c-21.6-1.8-12.2,2.7-23,2.3c-6.8,0-8.3-2.7-8.3-2.7c-19.3-12.8-7.9-7.7-25.9-13.5l-5.2,1.6c-0.2,0-0.2,0.5-0.2,0.5
	c-10.1,0-11.2,1.8-18.2,0c3.4-6.1,4.3-4.7,6.7-11.3c0.7-1.8,0.2-2.2,1.6-5c-6.3,2.7,0.2,0.7-7.7,8.6c-2.9,2.7-6.2,5-10.2,6.1
	c-3.4-12.4-8-9.7-10-9.7v4.7c4-0.7,3.1-1.8,6.2,2.2l3.9,7.4c0,0-0.6,2.3-0.6,2.7c-0.2,13.1,7.9,6.3-3.3,29.2
	c5.8-1.8,0.7,2.7,5.2-4.7c1.3-2.3,2.3-5,2.9-8.5c2.9-14-0.7-6.1-1.6-16.4c9.2-2.3,1.1-2.9,8.6-1.8c6.8,0.7,3.8,2.2,12.4,1.6
	c20.3-1.1,13.1-2.2,34.4,10.8c5.6,3.4-1.1,1.6,5.8,2.7c8.6,1.3,11.9-4.9,24.3-4.9c0,7.2-2.2,8-4.7,20h3.2c4-17,14.6-31.7,14.6-38
	c-0.2-8.3-1.1,1.2-1.1-7.3c-0.2-9.5-1.1-4.5,3.2-6.2c0.5-2,0.7-3.1,0.7-3.3c0,0.5,0.5,2.7,4.5,3.8c4.5,1.3,5.8-0.5,12.8-0.5
	c2.2,4.3,1.6,1.4,1.6,8.4h3.4c1.3-4,4.3-5.7,8.3-8.4c15.8,7.4,11.9,3.4,14,3.2c1.3-0.2,1.1-2.9,6.1,2.9c5.2,5.8-1.1,2.7,4.5,5.2
	c5.6,2.9,3.4-1.1,15.1,6.7c0.5,0.4,1.4,0.7,1.4,0.9v-10.3C978,682.1,979.6,683,969.5,683z M696,104.8v-5c-10,0.2-4.4,2.2-13.2,0
	c-0.5,8.3-1,2-3.2,9.7C690.4,107.1,686,102.3,696,104.8z M720.9,114.5c0,16.7-2.2,17.5,4.7,28.1l3.2,1.8c-0.2-7.4-2.7-7.4-4.3-14
	C722.3,121,727.2,119.2,720.9,114.5z M717.1,99.4c3.4-3.2,3.7-3.4,1.7-7.9c-9.5,0.7-1.8,3.2-14.8,3.2v3.4c5-0.5,4.6-0.7,8.3-1.6
	c-3.4,5-2.7,1.1-3.2,8.3C711.5,103,714.9,101,717.1,99.4z M251,55.3c-1.6,7.9-3.2,3.2,1.6,4.7c2.7-6.8,2.7,2.3,5-4.7
	c-4.7-1.3-2.9-0.7-6.7-3.4l-5,5C248.3,58,244.7,59.6,251,55.3z M975.8,299.3c-12.8-10.1-11.5-20.7-14.2-26.8l-3.4-4.7
	c-1.8-1.8,0-0.2-2.9-2.2l-13.5-6.7c-3.4-2.7-4.5-5-8.5-7.7c4.7,17.6,22.5,13,25.4,27c2.2,9.7-2.9,8.6,5,18.2
	c4.3,5.2,10.1,7.7,10.8,15.7c-4,1.1-2.3,0-6.1,4l-6.3,8.5c-1.6,2.3-1.8,2.3-2.9,5.2c-6.1,15.1,1.8,6.7-16.2,18.5
	c3.2,5.8-0.2,4.7,6.7,6.7c0-11.2-1.3-6.1,6.8-11.2c7.4-4.7,4.7-4.5,7.7-12.2c3.8-9,14.4-13.7,15.3-24.7c1.3,0,2.4,0.2,3.4,0.4v-5
	C979,301.5,976.9,300.2,975.8,299.3z M267.3,46.5c-1.8,7.4-4.7,4.5-7.4,17.1c-2.2,9.7-1.3,4.7-7.4,17.1c1.8,2.7,1.6,1.8,3.2,3.4
	c14.6,15.7,14.6,19.3,4.3,35.5c-5.2,7.9-11.9,10.1-12.2,22.1l2.7-4c9.7-16.7,7.2-6.3,18.5-24.3l2.3-4c4.5-5.8-2.7-2.9,6.1-4
	c-2.7-7.7,0.7,0.5-3.4-2.3c-1.8-1.4-2.2-0.2-2.2,0.5c0-0.5-0.4-1.7-1.1-4.7h7.2c0.2,0,0.7,0.2,0.7,0.2c31.1,5.2,30.4,21.2,41.2,20.9
	c4.3,0,5.8-2.3,11.2-0.7l7.2,4.5c-3.2,6.3-3.2,23.8-3.2,34.4c6.3-2.2,0.1,0,6.6-4.7l1.2-11.3V141h-0.1l-0.7-3.7
	c-0.5-6.1,1.6-12.2,4.5-16.3l2.9-3.4c10.3-10.3,4.3-2.3,8.5-12.9c5-12.2,17.6-5.8,18.2-23.2c5.2,0,30.6,4.3,35.5,7.7
	c2.2,1.6-1.1-0.2,2.3,2.3c-1.8-7.7-2.3-6.7-9.7-8.3c13.5-20.2,7.4-16.9,22-19.3c13.1-2.3,2.3-1.8,15.8-3.2c7.7-0.5,5.8-2.9,14.2-4.7
	c9.5-2.3,10.3-0.2,12.4,7.2c8.6,33.1,6.8,12.2,0.5,37.3c-1.1,4.5-1.3,2.9-2.3,7.4c3.8,2.7,7.4,8.5,11.2,7.2c5.6-2.2-1.8-4.5-4.5-8.6
	c8.5-37.1,14.8-14.8,29.3-16.4c26.1-3.4-0.7-27.2,29.9-29.9c-1.6,4.3-0.7,1.8-3.8,4.5c-3.2,2.9-0.5-1.6-4.5,4
	c8.5-0.7,2.2-1.3,9.7-3.4c5.8,8.6,5,9,13.5,13l9.5,5.2c1.8-0.2,14.6-15.8,32.2,4.3c7.2,8.3,2.3,7.7,0,18c-0.7,4.3-0.7,4.3-0.7,9
	c-3.8,0.2-16.4,4-19.1,5.8c-3.8,2.2-3.2,3.2-5.2,6.1l-1.6,1.8l-0.7,0.8l-2.9,3.8h8.3c4.5-9,1.8-8.5,12.8-12.3
	c8.3-3.2,4.5-2.4,10.3-1.1c0.7-8.6,4.5-15.7,5-23.1c7.9-0.2,5.8-2.3,12.8-1.3c4.5,0.7,4.3,2.3,8.3,2.2c4.5-0.2,3.8-2.2,9-2.3
	c8.5-0.7,6.8-0.5,6.8,4c0.2,5.8-1.8,0.7,1.6,6.8c6.7,12.4-1.6,22.1-2.2,28.6c5.8-6.7,9.2-9.5,8.3-23c-0.5-5.8-1.8-6.1-2.2-12.8
	c-0.2-7.9,2.2-2.7,2.2-10.6c34-7.9,24.1,9,33.1-29.7c14.8,0,14.8-6.8,19.3,3.8c6.3,14.2,4.5,6.7,14.8,14.8c4.3,3.8,5.6,6.8,10.6,9.5
	c6,3.4,7.3,0.3,9.6,7.9l-3.3-1.4c-2,3.6-2.4,4.1-3.1,8.3c5.2-1.1,1.8-1.6,6.8,0v-5.7c0.1,0.1,0.2,0.2,0.3,0.3c0,0.2,0.2,0.7,0.5,1.1
	c4,8.5,1.1,6.3,5.6,9.5c-0.5-5.8-2.3-14-5.6-17.6l-24.1-19.3c-10.8-6.3-4.3-3.5-8.6-12.9C708.6,49.8,711,45,711.3,36h-4.7
	c-4,20-17.5,9.8-26.5,14.5c0,0.2-2.2,1.7-2.7,1.7c-2.7,1.1-9.2,0.2-14.6-2.1c1.8,5,4.3,5.6,8.5,6.7c-8.5,35.6-8.4,22.5-20.2,24.3
	c-7.2,1.1-6.1,2.2-14.1,2.2v6.7c-7,0-18.3,1.6-21.5,1.3c-5-0.5-4.5-1.8-8.7-2.7c-5.8-0.7-2.7,0.5-9.6,1.3c-1.6-2.7-2.9-4-5-6.7
	c-3.8-4-15.7-11.7-21.4-13.1l1.1,3.8c0.5,0.2,0.5,0.7,0.7,1.3c-5.8-2.9-8.5,0.5-13.1,3.2c-1.3-1.1-1.6-1.6-3.8-2.9
	c-22.1-14.6-7.2-2.7-18.2-18.5c0-0.2-2.2-2.3-2.9-3.5c5.9-8.5,4.1-4.2,6.7-17.2H538c-0.2,1-0.4,1.4-0.5,2.1
	c-3.4,13.7-4.5,11.4-22.7,20.2c0.5,6.3,1.6,8.3-0.7,15.7c-6.1,19.6-22.1-0.5-35.5,5.8c0-11.3-3.4-10.2-5-18.6
	c-2.2-11-10.1-16.1-9.4-25.1h-3.1c0.7,4,2.2,5.3,2.5,10.9c-5.2,0-8.5,0.1-13.7,2.8c-0.2,0.2-0.5,0.6-1.1,0.7
	c-9.2,5.2-4.3,1.6-12.4,2.7c-4.5,0.7-9,2.7-14.2,3.4c-8.3,1.1-8.6-0.2-13,5.2l8.5,1.6c-11.3,2.7-9,4.3-13.1,13.1
	c-6.3,0-8.6-0.7-14.2-2.3c-3.4-1.3-9.5-2.9-12.2-4.3c1.3-5.8,2.7-13.2,1.3-21.3c-0.7-4.7-3.4-7.6-6.1-12.6h-7.7
	c12.1,16,8.3,20.5,6.5,37.5c-0.2,3.4-0.2,6.1-2.7,10.6c-6.3,11.2-9,0-15.7,15.8c-4.3,10.1-10.1,10.1-11.9,17.6
	c-8.5-2.3-2.2-4-10.1-4.7c-9.5-1.3-3.8,2.9-12.2,0.5c-6.8-2.2-1.8,0.2-4.7-3.4c-6.7-8.3,8.5-0.7-8.3-7.4l-2.3-1.1
	c-3.8-2.2-0.7-1.1-3.4-2.2l-5-1.6c-3.8-0.7-1.8,0-5.6-1.3c-9.2-2.9-5.2-5.8-16.4-3.8c-3.2,0.5-3.8-1.3-5.2-2.7l-7.7-10.6
	c6.8-29.3,12-19.8,11.1-32.6c-0.2-8.3-3-1.6,1-10.8V36h-5.3l-0.4,0.7c-0.2-0.2-0.5-0.7-0.9-0.7h-11.2c0.5,0,1.1,0.8,1.8,1.4
	L267.3,46.5z M520.2,43.1l1.1,2c0-3.2-0.4-6.1-0.7-9.1H518l1.1,4.8C519.3,41.3,519.8,42.7,520.2,43.1z M653.9,57.5
	c6.3,3.4,5.2,4.4,10.8,5.8c-2.3-3.8-5-7.3-8.5-9.8c-9-7.6-8.3-8.5-11.2-17.5h-4.7C642.4,44,643.5,51.8,653.9,57.5z M884.1,78
	c-1.1-5-1.8-2.6,0-6.6c8.8-4.1,5.4,4.4,8.1-3c-4.5-1.1-5.2-2.8-9.2,0.1c-4.3,3.2-3.2,5.5-2.3,9.5H884.1z M930,58.4
	c-2.2,4.7-1.6,3.2-1.6,10.1C930.7,66.6,939.4,58.7,930,58.4z M925.5,83.4c-1.3-4.3-2.2-0.7-2.7-0.5c0,0.2-0.5,0.5-0.7,0.7l-2.3,2.7
	c-3.2-2.2-4.5-2.9-8.3-5l-1.4,3.6c2.2,1.1,3.2-0.5,4.7,1.8c1.3,2.2,0.2,3.2,0.2,3.2c-0.2,0.2-0.5,0.7-0.5,0.7c0,0.2-0.2,0.7-0.2,1.1
	c-2.7,12.2-2.2,8.5,0.7,9.5c-4.7,7.4-3.2,6.8-3.2,18.2c9.7-11.3,3.2,2.3,9.7-6.7c-4.7-1.1-6.3,0-3.8-13.7
	C920.5,84.5,927.7,90,925.5,83.4z M728.4,152.9c-1.3-8.6-1.3-2.9-3.2-10.1l-3.2,1.8c5.2,8.5,6.3,14.8-3.6,14.2
	c-0.2,0-0.7-0.2-1.1-0.2c-11.9-1.6-1.8-6.7-24.7-1.3c-1.6,3.8-0.5,12.2-5.6,15.8c-2.3,1.6-2.7,1.3-4.7,2.2c-2,0.7-2.5,0.9-2.5,0.9
	c-0.4,0-0.7,0.1-1.3,0.1c-3.4,1.8-6.8,5.6-13.1,6.6h-1.3l-3.2-0.7c-6.7-2.7,5.2,0-12.8-4.5l-16.7-2.1c-0.7-1.3-2.7-4.5-4-5.8
	l-5.8-5.8c0.2-5.8,3.2-12.8,5-18l3.4-7.9c0.2-1.8,2.2,1.1-0.2-3.8c-1.6-2.9-1.6-2.2-3.4-3.4c-0.2,9.7-1.6,3.4-4,15.8
	c-1.6,8.5-0.2,11.9-7.4,14l5,7.9c7.4,9,4,3.4,3.2,13.5c3.8-4,11.3-3.4,16.2-2.9c2.7,0.5,4.5,1.6,8.6,2.7c8.3,1.8,3.8-0.5,9.7,3.4
	c-2.7,10.1-5,0.5-5,18.2l2.9-5.6c4.3-7.4,8.3-7.2,15.1-8.6c9.5-2.2,15.7-8.6,23.2-10.6c0-19.3,0.7-15.3,5-15.8
	c0.2-0.2,0.7-0.1,1.1-0.1h1.3l7.4-1.1c5.6,0.2,3.4,2.1,10.1,3.9c5.2,1.3,6.1,0.2,8.6,1.6l19.1,21.6h26.5c-0.2,0-0.5-0.5-1.1-0.5
	l-15.7-5c-10.6-1.3-1.1,3.8-12.4-8.5C731.8,162,731.1,167.6,728.4,152.9z M908.4,73.1l9,2.3c6.3,0.5,7.4,0.5,10.8-4
	c-4.5-2.2-10.3-0.5-16.4,0c1.8-2.3,3.2-3.4,6.1-5.2l4-1.8c1.8-0.2,1.3-0.2,4.7,0.5l-1.8-3.2c-0.5-1.8-1.1,0.2-0.5-2.9
	c1.3-6.8,14.6-8.6,20.3-9c11.3,0,9.2,2.3,16.9,3.4c12.4,1.8,9.2-2.3,17.6-3.2c0.7,9,2.9,2.9-0.2,9.5c-4.7,10.3-3.8,10.1-5.6,19.6
	c-1.1,5-2.7,5-2.9,10.3c-0.2,7.9-1.6,14-6.1,20.2c-5,6.8-4.7,6.3-4.7,19.6c-3.2,1.3-4,0.5-5.8,2.9l-5.8,5.2
	c-4.3-0.7-3.4-1.1-7.2-2.9l-5.6-2.3c-0.2-0.2-0.7-0.5-1.1-0.5l-20.9-4l-5-9.7c0.7,8.6,5,6.8,2.3,15.3c-2.2,6.8-5.6,6.1-7.2,12.8
	c-3.8,0-7.7,0.2-11.3-0.5c-4-0.7-4.5-2.3-8.3-3.4c-7.4-2.3-9.9,3.8-16.9,5.6v3.2c11,2.3,6.8-3.2,14.8-2.7c6.7,0.2,4.7,5.2,15.1,6.1
	c9,0.5,11.7-4.7,15.8-12.2c4-7.2,4.7-6.8,12.2-6.3c13.1,0.7,12.8,4,21.4,10.3c11.2-2.7,7.4-3.4,14.8-8.5c3.4,5.2,6.1,4.7,7.7,12.4
	c1.6,7.9-2,8.6,0.5,16.9c1.6,4.9,7.6,5.9,12.6,9v-10.1l-9.7-6.8c11.3-21.4-9.4-14.8-6.6-39.4c1.1-8.6,1.8-4.3,5.8-10.8
	c4.7-7.9,3.7-28.3,8.4-39.4c0.9-2.2,2.1-3.4,2.1-4.7V46.5c-8-5.4,0.8-0.4-15.4,0.2c-10.1,0.2-9.5-4.7-20.3-3.8
	c-1.1,0-6.1,1.3-7.7,1.8c-5.6,1.8,0.2,2-9.2,2.2c-0.4-4.5-1.6-6.9-2.9-10.9h-5.2c1.4,7,3.8,9.3,5.4,15.6l-18.5,16.3
	c-6.7,5.2-4.5,9.6-9.5,16.9C910.4,81.6,900.8,79.1,908.4,73.1z M795,134.1c0,0,0.5,0,0.5,0.2l4.5,1.3v-5c-6-0.2-6.1-1.1-10-3.2
	c2.3-6.3,8.5-6.7,18.2-21.4c-6.1-9-8.3-18.5,5.2-21.2c17.6-3.2,11.3-2.7,17.1-15.8c4.3-9.2,5.2-6.8,11.2-3.4
	c4.3,2.7,5.2,2.3,9.2,4.3c0.7-3.2,0.2-2.7,1.6-5c-6.1-0.9-16-6.5-20.3-10.4l-0.7-0.9L815.2,36h-6.3l18.5,19.6c2.3,2.3,0,1.4,3.8,2.8
	c-7.7,11.3-4.3,20.4-15.7,22.5c-0.7,0.2-2.2,0-5.6,0.7c-6.8,1.6-10.6,3.3-10.6,9.2c-0.2,11.3,5,12.2-1.3,21.6c-4.5,6.1-5,5-11.3,8.5
	C787.3,126.8,790.5,133.2,795,134.1z M885.5,101.2c3.8,6.8,1.6,11.7,8.3,16.7c-3.2-13.9-6.1-26.8-20-29.9
	C877.3,93.3,882.8,96.5,885.5,101.2z M771.4,174.1c4.3,3.4,5.6,6.3,10.3,9.5c0,0.2,0,0.7-0.5,1.1c-0.5,0.2-0.5,0.7-0.5,1.1
	c-6.1,12.4,0.2,22.5,10.8,29.3c4.5,3.2,7.4,7.2,8.5,14.8c0.2,4.3,0,6.1,0.7,10.6c1.3,7.9-0.5,5.6,4.3,9c-4.5-20.3,3.2-26.6-13-38.3
	c-5.6-4-4.3-6.3-7.2-15.7c-1.6-5-1.3-3.8-1.3-10.3c6.1-1.3,13.7-10.3,15.1-13c7.7-13.7,4.5-3.4,10.8-12.2l8.5-11.2
	c24.1,8.6,12.4,4.3,29.9-5c5.6,4.3,9.5,8.6,9.7,16.7c6.8-5,0-4.3,6.1-4.3c4-0.2,3.8,1.8,10.3,2.3c-10.8-9-16.4-16.7-28.1-19.3
	c-3.8,2.3-4.5,4.3-8.3,6.7c-4,2.9-4,2.9-9.2,1.3l-9.2-2.3c-4.7-0.2-6.3,1.8-7.9,5.8l-1.1-2.2c-0.2-0.5-0.7-2.9-5.2-6.1
	c1.1,13.1,1.1,3.8-4,12.4c-0.2,0.5-0.5,0.7-0.5,1.3l-6.8,11.3c-2.2,3.2-0.5,0.6-1.8,3.1c-3.4,6.3-3.8,4.4-5,9.4h-3.2
	c-1.6-4-0.2-1.2-2.9-3.7l-13.7-9.1c-4.3,3.8-4.5,1.3-8.3,6.7C765.9,172.1,765.3,168.9,771.4,174.1z M850.8,70.1
	c2.2,24.8,13.9,23.6,23,28.1c-2.3-9.2-5.8-3.4-13.5-11.2C853.7,80.7,857.1,74.6,850.8,70.1z"/>
</svg>
