<svg xmlns="http://www.w3.org/2000/svg" xmlns:xlink="http://www.w3.org/1999/xlink" version="1.1" x="0px" y="0px" viewBox="0 0 50 62.5" enable-background="new 0 0 50 50" xml:space="preserve">
    <g transform="rotate(8 25 31.25)"> <!-- Rotate 90 degrees around the center -->
        <path d="M24.9,45.2c-1.7,0-3.3-1.1-4-2.7L10.1,14c0,0,0-0.1,0-0.1l-8.2,7.4c-1,0.9-1.1,2.5-0.2,3.6l20.4,22.7c0.9,1,2.5,1.1,3.6,0.2l4.7-4.2l-3.8,1.5C26,45.1,25.5,45.2,24.9,45.2z" fill="#ededed"/>
        <path d="M23.1,37.2C19.6,6,19.9,9.1,19.8,7.5c-2.4,0.9-2.8,1.1-6.6,2.6c-1.3,0.5-2,1.9-1.5,3.3l10.9,28.5c0.5,1.3,2,2,3.3,1.5l7.8-3L27.8,41C25.5,41.2,23.4,39.5,23.1,37.2z" fill="#ededed"/>
        <path d="M49,34.3L45.6,4c-0.2-1.4-1.4-2.4-2.8-2.2l-7.7,0.9c-11.8,1.3-10,1.1-11.5,1.3c-1.4,0.2-2.4,1.4-2.2,2.8c0,0,3.4,30.3,3.4,30.3c0.2,1.4,1.4,2.4,2.8,2.2c15.3-1.7,16.5-1.8,19.1-2.2C48.1,37,49.1,35.7,49,34.3z" fill="#ededed"/>
    </g>
</svg>
