<svg xmlns="http://www.w3.org/2000/svg" version="1.1" viewBox="-5.0 -10.0 110.0 110.0">
 <path d="m81.465 11.016h-62.93c-4.1289 0-7.5195 3.3906-7.5195 7.5195v62.934c0 4.1289 3.3906 7.5195 7.5195 7.5195h62.934c4.1289 0 7.5195-3.3906 7.5195-7.5195l-0.003906-62.934c0-4.1328-3.3906-7.5195-7.5195-7.5195zm-15.949 23.168c2.5742-2.9766 7.1016 0.9375 4.5234 3.9141l-24.004 27.719c-1.2109 1.3945-3.3594 1.3594-4.5469-0.027344l-11.531-13.316c-2.5742-2.9766 1.9453-6.8906 4.5234-3.9141l9.293 10.73zm-46.98-29.168h62.934c7.4414 0 13.52 6.0781 13.52 13.52v62.934c0 7.4414-6.0781 13.52-13.52 13.52l-62.934-0.003906c-7.4414 0-13.52-6.0781-13.52-13.52v-62.93c0-7.4414 6.0742-13.52 13.52-13.52z" fill-rule="evenodd" fill="#1cff27" /></svg>