<svg xmlns="http://www.w3.org/2000/svg" viewBox="0 0 64 64" x="0px" y="0px"><title>x, cancel, cross, close</title><g data-name="X"><path d="M40.46,25.67,34.12,32l6.34,6.33a1.51,1.51,0,0,1-2.13,2.13L32,34.12l-6.33,6.34a1.51,1.51,0,0,1-2.13-2.13L29.88,32l-6.34-6.33a1.51,1.51,0,0,1,2.13-2.13L32,29.88l6.33-6.34a1.51,1.51,0,0,1,2.13,2.13ZM56.09,13.41V50.59a5.51,5.51,0,0,1-5.5,5.5H13.41a5.51,5.51,0,0,1-5.5-5.5V13.41a5.51,5.51,0,0,1,5.5-5.5H50.59A5.51,5.51,0,0,1,56.09,13.41Zm-3,0a2.5,2.5,0,0,0-2.5-2.5H13.41a2.5,2.5,0,0,0-2.5,2.5V50.59a2.5,2.5,0,0,0,2.5,2.5H50.59a2.5,2.5,0,0,0,2.5-2.5Z" fill="red"/></g></svg>