<svg xmlns="http://www.w3.org/2000/svg" xmlns:xlink="http://www.w3.org/1999/xlink" version="1.0" x="0px" y="0px" viewBox="0 0 450 410" style="enable-background:new 0 0 360 360;" xml:space="preserve">
  <path d="M297.2,199.7c0-57.1-43.7-104-99.5-109V37.4c0-3.6-2.9-6.5-6.5-6.5h-6.8c-3.6,0-6.5,2.9-6.5,6.5v53.3 c-11.6,1-22.6,3.9-32.8,8.2V37.4c0-3.6-2.9-6.5-6.5-6.5h-6.8c-3.6,0-6.5,2.9-6.5,6.5v72.5c-28.3,19.8-46.9,52.6-46.9,89.8 c0,27.5,10.2,49.3,26.9,64.8l-7.4,40.7c-1.2,2.4,1.9,6.4,6.8,8.7s9.9,2.4,11.1-0.1l15.7-32.3c16.5,7.4,35.8,11.2,56.4,11.2 c15.6,0,30.5-2.2,44-6.5l19.2,27.6c1.2,2.4,6.2,2.4,11.1,0.1c4.9-2.4,8-6.3,6.8-8.7l-7.9-33.2C283.2,256.4,297.2,232,297.2,199.7z M167.7,138.6c2-0.1,3.8,1.4,3.9,3.4s-1.4,3.8-3.4,3.9s-3.8-1.4-3.9-3.4S165.7,138.7,167.7,138.6z M118,138.6c2-0.1,3.8,1.4,3.9,3.4 s-1.4,3.8-3.4,3.9s-3.8-1.4-3.9-3.4S115.9,138.7,118,138.6z M145,219c-24.9,0-45.1-20.2-45.1-45.1s90.2-24.9,90.2,0 S169.9,219,145,219z" fill="#FFFFFF" />
</svg>
