<svg xmlns="http://www.w3.org/2000/svg" xmlns:xlink="http://www.w3.org/1999/xlink" version="1.1" x="0px" y="0px" viewBox="0 0 60 60" style="enable-background:new 0 0 60 60;" xml:space="preserve"><path d="M15.9400024,54h28.1199951c2.210022,0,4-1.789978,4-4V10c0-2.1999512-1.789978-4-4-4H15.9400024  c-2.2000122,0-4,1.8000488-4,4v40C11.9400024,52.210022,13.7399902,54,15.9400024,54z M40.960022,39.710022l3.1900024,4.5  c0.2399902,0.3400269,0.2399902,0.7999878,0,1.1500244l-3.1900024,4.5  c-0.1800537,0.2699585-0.4900513,0.4199829-0.8099976,0.4199829c-0.3300171,0-0.6300049-0.1500244-0.8200073-0.4199829  l-3.1799927-4.5c-0.25-0.3500366-0.25-0.8099976,0-1.1500244l3.1799927-4.5  C39.710022,39.1799927,40.5899658,39.1799927,40.960022,39.710022z M30.8200073,20.1400146l6.5700073,9.289978  c0.2399902,0.3400269,0.2399902,0.8000488,0,1.1500244l-6.5700073,9.289978  C30.6300049,40.1400146,30.3300171,40.2900391,30,40.2900391c-0.3200073,0-0.6300049-0.1500244-0.8099976-0.4200439  l-6.5700073-9.289978c-0.25-0.3499756-0.25-0.8099976,0-1.1500244l6.5700073-9.289978  C29.5599976,19.6000366,30.4500122,19.6000366,30.8200073,20.1400146z M15.8599854,14.6500244l3.1799927-4.5  c0.3800049-0.539978,1.2600098-0.539978,1.6400146,0l3.1799927,4.5c0.2399902,0.3400269,0.2399902,0.7999878,0,1.1500244  l-3.1799927,4.5c-0.1900024,0.2699585-0.5,0.4199829-0.8200073,0.4199829s-0.6300049-0.1500244-0.8200073-0.4199829l-3.1799927-4.5  C15.6199951,15.4500122,15.6199951,14.9900513,15.8599854,14.6500244z" stroke="red" fill="white"/></svg>